<svg width="32" height="34" viewBox="0 0 32 34" fill="none" xmlns="http://www.w3.org/2000/svg">
<path d="M28.3833 3.33364C27.5451 2.55501 24.158 0.0794904 16.6135 0.0458583C16.6135 0.0458583 7.71657 -0.494292 3.37945 3.51098C0.965161 5.94217 0.115857 9.49952 0.0262705 13.9099C-0.0633164 18.3203 -0.179223 26.5856 7.73428 28.8267H7.74187L7.73681 32.2465C7.73681 32.2465 7.6862 33.631 8.59168 33.9133C9.68697 34.2558 10.3298 33.2035 11.3755 32.0692C11.9494 31.4465 12.742 30.5318 13.3393 29.8326C18.7514 30.2912 22.9139 29.243 23.3867 29.0881C24.4794 28.7314 30.6629 27.9339 31.6686 19.6691C32.7067 11.1505 31.1666 5.76229 28.3833 3.33364Z" fill="white"/>
<path d="M26.6232 5.05355C25.9146 4.40537 22.856 2.47051 16.4741 2.44248C16.4741 2.44248 8.91689 1.94259 5.24838 5.28796C3.20661 7.3176 2.51877 10.3358 2.44335 14.019C2.36794 17.7023 1.9772 24.7385 8.66888 26.6102C8.66888 26.6102 8.64256 31.8338 8.63952 32.293C8.63952 32.614 8.69014 32.8336 8.87235 32.879C9.00344 32.9111 9.19982 32.8428 9.36685 32.6751C10.4368 31.5933 13.8624 27.4326 13.8624 27.4326C18.4586 27.7348 22.1155 26.8211 22.5088 26.6917C23.436 26.3916 28.4514 25.9579 29.3002 19.0552C30.1773 11.94 28.9778 7.08319 26.6232 5.05355Z" fill="#7360F2"/>
<path fill-rule="evenodd" clip-rule="evenodd" d="M16.7429 11.04C16.7552 10.8031 16.9559 10.621 17.1912 10.6334C18.0717 10.6797 18.8042 10.948 19.3259 11.491C19.8456 12.032 20.1004 12.7878 20.1451 13.6955C20.1568 13.9325 19.9754 14.1341 19.7401 14.1458C19.5047 14.1576 19.3045 13.975 19.2928 13.7381C19.2545 12.9611 19.0428 12.4321 18.7125 12.0883C18.3842 11.7466 17.8833 11.5301 17.1468 11.4914C16.9114 11.479 16.7306 11.2769 16.7429 11.04Z" fill="white"/>
<path fill-rule="evenodd" clip-rule="evenodd" d="M16.0961 8.72636C16.1133 8.48975 16.3178 8.31197 16.5528 8.32929C18.3446 8.46131 19.7868 9.07769 20.8373 10.2322L20.8375 10.2324C21.8766 11.3755 22.3704 12.7976 22.3346 14.4656C22.3295 14.7028 22.1344 14.8909 21.8988 14.8858C21.6632 14.8806 21.4763 14.6842 21.4814 14.447C21.5131 12.976 21.0834 11.7755 20.2079 10.8124C19.3351 9.85328 18.1151 9.30585 16.4905 9.18614C16.2555 9.16883 16.0789 8.96298 16.0961 8.72636Z" fill="white"/>
<path fill-rule="evenodd" clip-rule="evenodd" d="M15.3429 6.52619C15.3445 6.28895 15.5369 6.09797 15.7725 6.09962C18.2487 6.11698 20.3417 6.94691 22.0222 8.59621C23.7167 10.2593 24.5546 12.5234 24.5759 15.3355C24.5777 15.5727 24.3881 15.7665 24.1525 15.7683C23.9168 15.7701 23.7244 15.5792 23.7226 15.342C23.7027 12.707 22.924 10.6812 21.4265 9.21141C19.9149 7.72783 18.0381 6.97467 15.7666 6.95874C15.531 6.95709 15.3413 6.76343 15.3429 6.52619Z" fill="white"/>
<path d="M17.2535 19.4707C17.2535 19.4707 17.8533 19.5217 18.1762 19.1212L18.8059 18.3237C19.1095 17.9283 19.8424 17.676 20.5601 18.0786C21.098 18.3874 21.6201 18.7231 22.1246 19.0845C22.6009 19.4371 23.5762 20.2565 23.5793 20.2565C24.0439 20.6514 24.1512 21.2313 23.8349 21.8428C23.8349 21.8464 23.8323 21.8525 23.8323 21.8556C23.4839 22.4636 23.0416 23.012 22.5219 23.4801C22.5159 23.4831 22.5159 23.4862 22.5103 23.4893C22.0588 23.8691 21.6153 24.0849 21.1797 24.1369C21.1155 24.1482 21.0503 24.1523 20.9853 24.1492C20.7932 24.151 20.6021 24.1214 20.4194 24.0615L20.4053 24.0406C19.7341 23.85 18.6135 23.3731 16.7474 22.3366C15.6675 21.7439 14.6394 21.0601 13.6741 20.2927C13.1903 19.9082 12.7288 19.4962 12.2918 19.0585L12.2453 19.0116L12.1987 18.9647L12.1521 18.9178C12.1364 18.9026 12.1213 18.8868 12.1056 18.871C11.6708 18.4311 11.2615 17.9664 10.8797 17.4793C10.1175 16.5076 9.43841 15.4727 8.84956 14.3857C7.82007 12.5064 7.34633 11.3792 7.15703 10.7025L7.13628 10.6882C7.07694 10.5043 7.04771 10.3119 7.04973 10.1185C7.04618 10.053 7.05009 9.98737 7.06137 9.92281C7.11569 9.48491 7.33047 9.03801 7.70569 8.58211C7.70872 8.57651 7.71176 8.57651 7.7148 8.57039C8.17958 8.04722 8.72429 7.60203 9.32837 7.25161C9.33141 7.25161 9.33748 7.24855 9.34103 7.24855C9.94839 6.93007 10.5244 7.0381 10.9161 7.50334C10.9192 7.5064 11.7315 8.48835 12.0803 8.96786C12.4392 9.47628 12.7727 10.0025 13.0794 10.5445C13.4792 11.2666 13.2287 12.006 12.8359 12.3107L12.0438 12.9446C11.644 13.2697 11.6966 13.8736 11.6966 13.8736C11.6966 13.8736 12.8698 18.3441 17.2535 19.4707Z" fill="white"/>
</svg>
