<svg width="32" height="32" viewBox="0 0 32 32" fill="none" xmlns="http://www.w3.org/2000/svg">
<path d="M21.3333 14V10.6667C21.3333 10.2985 21.0349 10 20.6667 10H19.3333C18.9652 10 18.6667 10.2985 18.6667 10.6667V12.6667H13.3333V10.6667C13.3333 10.2985 13.0349 10 12.6667 10H11.3333C10.9652 10 10.6667 10.2985 10.6667 10.6667V14L2 23.3333H30L21.3333 14Z" fill="#444444"/>
<path d="M3.33333 28.6673H28.6667C29.4031 28.6673 30 28.0703 30 27.334V23.334H2V27.334C2 28.0703 2.59697 28.6673 3.33333 28.6673Z" fill="#565656"/>
<path d="M16 21.3333C18.5774 21.3333 20.6667 20.1394 20.6667 18.6667C20.6667 17.1939 18.5774 16 16 16C13.4227 16 11.3334 17.1939 11.3334 18.6667C11.3334 20.1394 13.4227 21.3333 16 21.3333Z" fill="#E6E6E6"/>
<path d="M5.33337 3.33398C3.12423 3.33398 1.33337 5.12484 1.33337 7.33398V7.33398V10.0007C1.33337 10.737 1.93033 11.334 2.66671 11.334H7.33337C8.06975 11.334 8.66671 10.737 8.66671 10.0007V6.66732H23.3334V10.0007C23.3334 10.737 23.9303 11.334 24.6667 11.334H29.3334C30.0698 11.334 30.6667 10.737 30.6667 10.0007V7.33398V7.33398C30.6667 5.12484 28.8758 3.33398 26.6667 3.33398H5.33337Z" fill="#444444"/>
</svg>
