<svg width="104" height="104" viewBox="0 0 104 104" fill="none" xmlns="http://www.w3.org/2000/svg">
<path d="M78 18.7638C71.7609 13.8928 64.2788 10.8724 56.4066 10.0469C48.5343 9.2213 40.5885 10.6238 33.4745 14.0945C26.3606 17.5652 20.3647 22.9645 16.1701 29.6771C11.9755 36.3898 9.75098 44.1457 9.75 52.0612V61.8112" stroke="#72C472" stroke-width="4" stroke-linecap="round" stroke-linejoin="round"/>
<path d="M26 85.3646C32.2402 90.2343 39.7228 93.2534 47.5952 94.0777C55.4676 94.902 63.4133 93.4985 70.527 90.0271C77.6406 86.5556 83.6361 81.1558 87.8303 74.443C92.0246 67.7301 94.249 59.9741 94.25 52.0586V42.3086" stroke="#4DA34D" stroke-width="4" stroke-linecap="round" stroke-linejoin="round"/>
<path d="M3.25 55.3086L9.75 61.8086L16.25 55.3086" stroke="#72C472" stroke-width="4" stroke-linecap="round" stroke-linejoin="round"/>
<path d="M100.75 48.8086L94.25 42.3086L87.75 48.8086" stroke="#4DA34D" stroke-width="4" stroke-linecap="round" stroke-linejoin="round"/>
<path d="M70.0247 35.7578H48.9375C48.4516 35.7578 48.0588 36.1506 48.0588 36.6364V40.151C48.0588 40.6369 48.4516 41.0296 48.9375 41.0296H70.0247C70.5106 41.0296 70.9034 40.6369 70.9034 40.151V36.6364C70.9034 36.1506 70.5106 35.7578 70.0247 35.7578Z" fill="#2B2D4D"/>
<path d="M70.0247 49.8145H48.9375C48.4516 49.8145 48.0588 50.2072 48.0588 50.6931V54.2076C48.0588 54.6935 48.4516 55.0863 48.9375 55.0863H70.0247C70.5106 55.0863 70.9034 54.6935 70.9034 54.2076V50.6931C70.9034 50.2072 70.5106 49.8145 70.0247 49.8145Z" fill="#2B2D4D"/>
<path d="M70.0247 63.873H48.9375C48.4516 63.873 48.0588 64.2658 48.0588 64.7517V68.2662C48.0588 68.7521 48.4516 69.1449 48.9375 69.1449H70.0247C70.5106 69.1449 70.9034 68.7521 70.9034 68.2662V64.7517C70.9034 64.2658 70.5106 63.873 70.0247 63.873Z" fill="#2B2D4D"/>
<path d="M38.3932 42.7864C40.8195 42.7864 42.7864 40.8195 42.7864 38.3932C42.7864 35.9669 40.8195 34 38.3932 34C35.9669 34 34 35.9669 34 38.3932C34 40.8195 35.9669 42.7864 38.3932 42.7864Z" fill="#2B2D4D"/>
<path d="M38.3938 56.843C40.8201 56.843 42.787 54.8761 42.787 52.4498C42.787 50.0235 40.8201 48.0566 38.3938 48.0566C35.9675 48.0566 34.0006 50.0235 34.0006 52.4498C34.0006 54.8761 35.9675 56.843 38.3938 56.843Z" fill="#2B2D4D"/>
<path d="M38.3938 70.9035C40.8201 70.9035 42.787 68.9366 42.787 66.5104C42.787 64.0841 40.8201 62.1172 38.3938 62.1172C35.9675 62.1172 34.0006 64.0841 34.0006 66.5104C34.0006 68.9366 35.9675 70.9035 38.3938 70.9035Z" fill="#2B2D4D"/>
</svg>
