<svg width="32" height="32" viewBox="0 0 32 32" fill="none" xmlns="http://www.w3.org/2000/svg">
<path d="M16.0001 0.333984C13.6719 0.335324 11.3733 0.855543 9.2714 1.85681C7.16953 2.85807 5.31724 4.31521 3.84924 6.12224C2.38124 7.92928 1.33444 10.0408 0.784974 12.3032C0.235506 14.5656 0.197182 16.922 0.672791 19.2011C1.1484 21.4802 2.12598 23.6246 3.53444 25.4784C4.94291 27.3322 6.74683 28.8488 8.81504 29.9179C10.8832 30.987 13.1637 31.5817 15.4906 31.6587C17.8175 31.7358 20.1323 31.2932 22.2667 30.3633L23.7941 29.6966L22.4607 26.642L20.9334 27.3087C18.4994 28.3709 15.7876 28.6192 13.2012 28.0165C10.6148 27.4139 8.29205 25.9925 6.57833 23.9637C4.86461 21.935 3.85149 19.4073 3.68965 16.7566C3.52781 14.1058 4.22589 11.4737 5.68007 9.25152C7.13425 7.02938 9.26686 5.33596 11.7607 4.42312C14.2546 3.51029 16.9765 3.42679 19.5216 4.18506C22.0667 4.94333 24.2991 6.50286 25.8867 8.6317C27.4744 10.7605 28.3325 13.345 28.3334 16.0007V19.0007C28.3334 19.5311 28.1227 20.0398 27.7476 20.4149C27.3725 20.7899 26.8638 21.0007 26.3334 21.0007C25.803 21.0007 25.2943 20.7899 24.9192 20.4149C24.5441 20.0398 24.3334 19.5311 24.3334 19.0007V8.33398H21.0001V9.34998C19.7243 8.39026 18.1996 7.81742 16.6076 7.69971C15.0155 7.58199 13.4231 7.92435 12.0201 8.68602C10.6171 9.44768 9.46259 10.5966 8.69405 11.9958C7.9255 13.3951 7.57533 14.9857 7.68523 16.5784C7.79513 18.171 8.36048 19.6985 9.31393 20.9789C10.2674 22.2593 11.5688 23.2387 13.0631 23.8004C14.5574 24.3622 16.1817 24.4826 17.7425 24.1473C19.3034 23.812 20.7349 23.0352 21.8667 21.9093C22.4928 22.8741 23.4141 23.6106 24.4932 24.0086C25.5723 24.4066 26.7512 24.4448 27.8538 24.1175C28.9564 23.7903 29.9235 23.1151 30.6107 22.1929C31.298 21.2706 31.6684 20.1508 31.6667 19.0007V16.0007C31.662 11.8471 30.0098 7.86494 27.0728 4.92791C24.1358 1.99087 20.1537 0.338748 16.0001 0.333984ZM16.0001 21.0007C15.0112 21.0007 14.0445 20.7074 13.2222 20.158C12.4 19.6086 11.7591 18.8277 11.3807 17.9141C11.0022 17.0004 10.9032 15.9951 11.0961 15.0252C11.2891 14.0553 11.7653 13.1644 12.4645 12.4651C13.1638 11.7659 14.0547 11.2896 15.0246 11.0967C15.9945 10.9038 16.9998 11.0028 17.9135 11.3813C18.8271 11.7597 19.608 12.4006 20.1574 13.2228C20.7068 14.045 21.0001 15.0117 21.0001 16.0007C20.9986 17.3263 20.4714 18.5972 19.534 19.5346C18.5967 20.472 17.3257 20.9992 16.0001 21.0007Z" fill="#6FA269"/>
</svg>
