<svg width="181" height="180" viewBox="0 0 181 180" fill="none" xmlns="http://www.w3.org/2000/svg">
<circle cx="90.5" cy="90" r="90" fill="white"/>
<mask id="mask0" mask-type="alpha" maskUnits="userSpaceOnUse" x="0" y="0" width="181" height="180">
<circle cx="90.5" cy="90" r="90" fill="white"/>
</mask>
<g mask="url(#mask0)">
<path d="M123.557 41.499C124.384 41.4677 125.03 40.7713 124.999 39.9435L124.49 26.4531C124.459 25.6252 123.762 24.9795 122.935 25.0107C122.107 25.0419 121.461 25.7383 121.492 26.5662L121.945 38.5576L109.953 39.01C109.125 39.0412 108.479 39.7376 108.511 40.5655C108.542 41.3933 109.238 42.0391 110.066 42.0079L123.557 41.499ZM59.2412 38.342C60.6303 36.2949 63.556 33.8347 67.7225 31.7021C71.8561 29.5864 77.0945 27.8541 82.9838 27.1773C94.7276 25.8277 109.075 28.6691 122.48 41.0999L124.52 38.9001C110.425 25.8302 95.1891 22.7549 82.6412 24.1969C76.3847 24.9159 70.8002 26.7567 66.3556 29.0316C61.944 31.2897 58.5364 34.0378 56.7588 36.6575L59.2412 38.342Z" fill="#66338A"/>
<path d="M57.4435 143.501C56.6156 143.532 55.9698 144.229 56.0011 145.057L56.51 158.547C56.5412 159.375 57.2376 160.021 58.0654 159.989C58.8933 159.958 59.5391 159.262 59.5078 158.434L59.0555 146.442L71.0469 145.99C71.8748 145.959 72.5206 145.262 72.4893 144.435C72.4581 143.607 71.7617 142.961 70.9339 142.992L57.4435 143.501ZM121.759 146.658C120.37 148.705 117.444 151.165 113.277 153.298C109.144 155.414 103.906 157.146 98.0162 157.823C86.2724 159.172 71.9253 156.331 58.5199 143.9L56.4801 146.1C70.5747 159.17 85.8109 162.245 98.3588 160.803C104.615 160.084 110.2 158.243 114.644 155.968C119.056 153.71 122.464 150.962 124.241 148.343L121.759 146.658Z" fill="#66338A"/>
<path d="M-18.4066 46.5117H51.1755L62.7725 81.3028H-30.0037L-18.4066 46.5117Z" fill="#E6E6E6"/>
<path d="M48.2759 118.994V133.49C48.2759 134.259 48.5813 134.997 49.125 135.541C49.6688 136.084 50.4062 136.39 51.1751 136.39H74.3692C75.1381 136.39 75.8755 136.084 76.4193 135.541C76.963 134.997 77.2684 134.259 77.2684 133.49V118.994H48.2759Z" fill="#444444"/>
<path d="M74.7203 89.1519L65.3035 79.7351L55.2344 49.5597C54.6577 47.8304 53.5524 46.326 52.0744 45.259C50.5964 44.192 48.8205 43.6163 46.9976 43.6133H-14.2289C-16.0518 43.6163 -17.8276 44.192 -19.3056 45.259C-20.7836 46.326 -21.889 47.8304 -22.4657 49.5597L-32.5377 79.7351L-41.9545 89.1548C-43.5839 90.7853 -44.4995 92.996 -44.5 95.3012V118.994H77.2687V95.3041C77.2689 94.1615 77.0439 93.0301 76.6066 91.9745C76.1693 90.9188 75.5283 89.9597 74.7203 89.1519ZM-16.9803 51.3949C-16.7879 50.8173 -16.4186 50.315 -15.9248 49.959C-15.431 49.6031 -14.8376 49.4116 -14.2289 49.4118H46.9976C47.6063 49.4116 48.1997 49.6031 48.6935 49.959C49.1874 50.315 49.5566 50.8173 49.749 51.3949L58.7512 78.4043H-25.9825L-16.9803 51.3949Z" fill="#72C472"/>
<path d="M77.2686 113.195H-44.5001V121.893H77.2686V113.195Z" fill="#4DA34D"/>
<path d="M59.8731 104.497C63.0755 104.497 65.6716 101.901 65.6716 98.6989C65.6716 95.4965 63.0755 92.9004 59.8731 92.9004C56.6707 92.9004 54.0746 95.4965 54.0746 98.6989C54.0746 101.901 56.6707 104.497 59.8731 104.497Z" fill="#E6E6E6"/>
<path d="M27.9815 101.597H4.78744C4.01851 101.597 3.28107 101.292 2.73735 100.748C2.19364 100.204 1.88818 99.467 1.88818 98.6981C1.88818 97.9292 2.19364 97.1917 2.73735 96.648C3.28107 96.1043 4.01851 95.7988 4.78744 95.7988H27.9815C28.7504 95.7988 29.4879 96.1043 30.0316 96.648C30.5753 97.1917 30.8807 97.9292 30.8807 98.6981C30.8807 99.467 30.5753 100.204 30.0316 100.748C29.4879 101.292 28.7504 101.597 27.9815 101.597Z" fill="#4DA34D"/>
<path d="M133.593 46.8984H203.175L214.772 81.6895H121.996L133.593 46.8984Z" fill="#E6E6E6"/>
<path d="M107.5 119.381V133.877C107.5 134.646 107.805 135.384 108.349 135.927C108.893 136.471 109.63 136.776 110.399 136.776H133.593C134.362 136.776 135.1 136.471 135.643 135.927C136.187 135.384 136.492 134.646 136.492 133.877V119.381H107.5Z" fill="#444444"/>
<path d="M226.72 89.5386L217.303 80.1218L207.234 49.9464C206.658 48.2171 205.552 46.7127 204.074 45.6457C202.596 44.5787 200.82 44.003 198.998 44H137.771C135.948 44.003 134.172 44.5787 132.694 45.6457C131.216 46.7127 130.111 48.2171 129.534 49.9464L119.462 80.1218L110.046 89.5415C108.416 91.172 107.5 93.3827 107.5 95.6879V119.381H229.269V95.6908C229.269 94.5482 229.044 93.4168 228.607 92.3612C228.169 91.3055 227.528 90.3464 226.72 89.5386ZM135.02 51.7816C135.212 51.2041 135.581 50.7017 136.075 50.3458C136.569 49.9898 137.162 49.7984 137.771 49.7985H198.998C199.606 49.7984 200.2 49.9898 200.694 50.3458C201.187 50.7017 201.557 51.2041 201.749 51.7816L210.751 78.7911H126.018L135.02 51.7816Z" fill="#26B6E3"/>
<path d="M229.269 113.582H107.5V122.28H229.269V113.582Z" fill="#227691"/>
<path d="M124.896 104.884C128.098 104.884 130.694 102.288 130.694 99.0856C130.694 95.8832 128.098 93.2871 124.896 93.2871C121.693 93.2871 119.097 95.8832 119.097 99.0856C119.097 102.288 121.693 104.884 124.896 104.884Z" fill="#E6E6E6"/>
<path d="M179.981 101.984H156.787C156.019 101.984 155.281 101.679 154.737 101.135C154.194 100.591 153.888 99.8537 153.888 99.0848C153.888 98.3159 154.194 97.5784 154.737 97.0347C155.281 96.491 156.019 96.1855 156.787 96.1855H179.981C180.75 96.1855 181.488 96.491 182.032 97.0347C182.575 97.5784 182.881 98.3159 182.881 99.0848C182.881 99.8537 182.575 100.591 182.032 101.135C181.488 101.679 180.75 101.984 179.981 101.984Z" fill="#227691"/>
</g>
</svg>
