<svg width="180" height="185" viewBox="0 0 180 185" fill="none" xmlns="http://www.w3.org/2000/svg">
<circle cx="90" cy="90" r="90" fill="#F0F5EF"/>
<mask id="mask0" mask-type="alpha" maskUnits="userSpaceOnUse" x="0" y="0" width="180" height="180">
<circle cx="90" cy="90" r="90" fill="white"/>
</mask>
<g mask="url(#mask0)">
<path d="M123.693 134.124C113.392 114.678 38.9649 116.807 3.03891 120.302C-2.20693 132.058 -4.40064 161.862 28.7912 187.028C61.983 212.194 115.427 183.851 138 166.533C137.523 163.833 133.994 153.57 123.693 134.124Z" fill="#C2C2C2"/>
</g>
<path fill-rule="evenodd" clip-rule="evenodd" d="M135.485 166.766L135.417 164.319L135.278 159.264H126.481L127.228 164.319L127.575 166.681L128.591 173.56H135.672L135.485 166.766Z" fill="#EBBC8F"/>
<path fill-rule="evenodd" clip-rule="evenodd" d="M118.058 164.32L117.919 159.264H109.121L109.869 164.32L110.216 166.682L111.233 173.56H118.312L118.126 166.768L118.058 164.32Z" fill="#EBBC8F"/>
<path fill-rule="evenodd" clip-rule="evenodd" d="M125.787 161.048C125.787 161.048 123.509 150.063 122.744 143.902C121.978 137.743 121.582 123.139 121.582 123.139C121.582 123.139 112.494 124.92 96.0675 123.954C71.8016 122.53 63.8268 113.271 72.1431 96.1799C72.8885 95.5424 74.9772 95.4958 78.4094 96.04C94.213 97.5655 118.129 104.819 126.355 108.385C128.335 109.244 130.095 110.152 131.638 111.108C133.621 112.337 134.862 116.063 135.61 120.966C137.857 135.7 135.634 161.048 135.634 161.048H125.787Z" fill="#539553"/>
<path fill-rule="evenodd" clip-rule="evenodd" d="M152.516 184.759H126.226C126.031 184.403 125.924 183.896 125.88 183.293C125.716 181.056 126.424 177.49 126.772 175.241C126.815 174.978 126.851 174.734 126.879 174.512C126.927 174.136 126.957 173.823 126.957 173.593C126.957 171.757 128.573 172.072 128.573 172.072C131.234 174.695 134.246 170.763 136.005 172.053C136.005 172.053 136.076 172.105 136.238 172.231C136.386 172.348 136.61 172.53 136.921 172.792C137.369 173.169 137.998 173.716 138.849 174.486C140.936 176.373 144.486 177.618 147.508 178.888C147.893 179.05 148.251 179.213 148.584 179.373C148.835 179.495 149.073 179.617 149.297 179.739C151.767 181.08 152.553 182.361 152.731 183.293C152.901 184.186 152.516 184.759 152.516 184.759Z" fill="#664126"/>
<mask id="mask1" mask-type="alpha" maskUnits="userSpaceOnUse" x="125" y="183" width="28" height="2">
<path fill-rule="evenodd" clip-rule="evenodd" d="M125.881 183.293H152.775V184.76H125.881V183.293Z" fill="white"/>
</mask>
<g mask="url(#mask1)">
<path fill-rule="evenodd" clip-rule="evenodd" d="M152.515 184.76H126.226C126.031 184.404 125.924 183.896 125.881 183.293H152.732C152.902 184.186 152.515 184.76 152.515 184.76Z" fill="#664126"/>
</g>
<path fill-rule="evenodd" clip-rule="evenodd" d="M135.372 184.794H109.083C108.888 184.438 108.781 183.931 108.737 183.328C108.573 181.092 109.281 177.525 109.629 175.276C109.672 175.014 109.707 174.769 109.735 174.548C109.784 174.171 109.814 173.858 109.814 173.629C109.814 171.793 111.43 172.107 111.43 172.107C114.091 174.73 117.103 170.798 118.862 172.088C118.862 172.088 118.933 172.14 119.095 172.268C119.242 172.384 119.467 172.565 119.778 172.829C120.226 173.204 120.855 173.751 121.706 174.521C123.793 176.408 127.342 177.653 130.365 178.923C130.75 179.086 131.109 179.248 131.44 179.408C131.691 179.53 131.929 179.653 132.154 179.774C134.624 181.115 135.41 182.396 135.588 183.328C135.759 184.222 135.372 184.794 135.372 184.794Z" fill="#7E4F2D"/>
<path fill-rule="evenodd" clip-rule="evenodd" d="M135.372 184.794H109.083C108.888 184.438 108.782 183.931 108.737 183.328H135.588C135.759 184.22 135.372 184.794 135.372 184.794Z" fill="#7E4F2D"/>
<mask id="mask2" mask-type="alpha" maskUnits="userSpaceOnUse" x="55" y="95" width="65" height="67">
<path fill-rule="evenodd" clip-rule="evenodd" d="M55 95.7559H119.472V161.081H55V95.7559Z" fill="white"/>
</mask>
<g mask="url(#mask2)">
<path fill-rule="evenodd" clip-rule="evenodd" d="M108.643 161.081C108.643 161.081 106.365 150.096 105.6 143.935C104.835 137.777 104.439 123.172 104.439 123.172C104.439 123.172 103.336 123.532 101.091 123.931C97.3486 124.597 63.9409 122.823 62.6698 122.823C49.892 122.823 57.5664 95.7559 57.5664 95.7559L72.143 96.1792L73.8907 98.7524C89.6932 100.277 100.985 104.851 109.211 108.418C111.191 109.276 112.951 110.185 114.494 111.141C116.477 112.37 117.718 116.096 118.466 120.999C120.713 135.733 118.491 161.081 118.491 161.081H108.643Z" fill="#6AB36A"/>
</g>
<path fill-rule="evenodd" clip-rule="evenodd" d="M69.7988 37.4668V37.4686C69.7998 37.4686 69.8007 37.4696 69.8016 37.4696L69.7988 37.4668Z" fill="#432C82"/>
<mask id="mask3" mask-type="alpha" maskUnits="userSpaceOnUse" x="54" y="14" width="37" height="30">
<path fill-rule="evenodd" clip-rule="evenodd" d="M54.551 14.2441H90.1819V43.1546H54.551V14.2441Z" fill="white"/>
</mask>
<g mask="url(#mask3)">
<path fill-rule="evenodd" clip-rule="evenodd" d="M57.2594 37.9285C57.3206 38.0347 57.3768 38.1429 57.4227 38.2542C57.5514 38.4186 57.8118 38.4973 57.8669 38.7107C58.0273 38.7036 58.1243 38.7955 58.2233 38.8772C59.2374 39.7114 60.5496 40.0597 61.876 40.3415C62.9084 40.5611 62.9309 40.509 63.0198 41.4015C63.0596 41.8048 63.2975 41.9968 63.7907 42.0213C64.9528 42.0775 65.9086 41.7088 66.748 41.0808C66.8604 40.9971 66.9962 40.8215 67.131 40.9379C67.372 41.1482 67.7243 41.1962 67.953 41.4515C70.268 44.0279 75.77 43.3795 78.372 41.5036C78.7151 41.2565 79.0878 40.9675 79.5422 40.9848C79.8659 40.9981 80.1447 41.1686 80.4357 41.2881C81.0474 41.5393 81.7847 41.572 82.426 41.377C82.7231 41.2851 82.9978 41.1482 83.295 41.0553C83.7055 40.9256 84.1303 41.0196 84.549 41.0451C84.984 41.0716 85.2158 40.9389 85.6233 40.8245C85.8214 40.7684 86.0613 40.7837 86.1941 40.9399C86.2584 41.0155 86.2921 41.1176 86.3697 41.1789C86.4473 41.2381 86.5525 41.2463 86.6506 41.2422C87.2122 41.2197 87.2786 40.8807 87.7136 40.6836C87.7228 40.9042 87.7044 41.0921 87.5083 41.2412C87.6799 41.7099 87.9066 41.8253 88.4161 41.6639C88.8624 41.523 89.227 41.3045 89.5078 40.9532C90.0286 40.3047 90.1756 39.5777 90.1819 38.8424C90.192 37.6099 89.7416 36.5091 89.4404 35.3419C89.1248 34.1185 88.793 32.8972 88.556 31.6544C88.311 30.3688 88.4927 29.1138 88.4641 27.8159C88.4468 26.9979 88.3518 26.181 88.1833 25.3794C87.9781 24.4093 87.6635 23.4616 87.2428 22.562C86.0624 20.0438 84.0507 17.9228 81.5978 16.6116C80.5777 16.0663 79.4901 15.6579 78.3934 15.2882C77.4008 14.9543 76.396 14.6469 75.3646 14.459C70.2608 13.5257 65.5573 15.7222 62.0486 19.3137C61.2879 20.0928 60.7609 21.0292 60.1431 21.9023C59.6652 22.5763 59.1383 23.2339 58.7574 23.9457C58.0763 25.215 57.4033 26.4894 56.8233 27.7955C56.1933 29.2149 55.5489 30.6271 55.1343 32.1017C54.9556 32.7379 54.8882 33.3914 54.7534 34.0327C54.5175 35.1519 54.4328 36.2691 54.8034 37.3577C54.9576 37.8111 55.1782 38.2328 55.555 38.5381C55.7113 38.6658 56.326 39.0589 56.5272 38.9109C56.6875 38.7924 56.5374 38.4095 56.5211 38.2461C56.4761 37.7906 56.4843 37.3362 56.6773 36.9124C57.047 37.8345 57.7097 38.8608 58.6921 39.1866C58.6696 39.1631 58.6471 39.1396 58.6247 39.1161" fill="#2B2D4D"/>
</g>
<path fill-rule="evenodd" clip-rule="evenodd" d="M77.9252 39.6464L77.719 47.4778C77.6516 50.2278 75.9217 51.6574 73.2156 51.5706C70.9047 51.4961 68.7736 50.2329 68.5612 47.9312L69.4782 35.623L77.9252 39.6464Z" fill="#EBBC8F"/>
<path fill-rule="evenodd" clip-rule="evenodd" d="M77.7969 43.4665C72.3163 43.4721 68.8372 36.3184 68.8372 36.3184L77.9613 38.3676L77.7969 43.4665Z" fill="#00023C" fill-opacity="0.18"/>
<path fill-rule="evenodd" clip-rule="evenodd" d="M74.1899 39.7207C78.7035 40.4549 82.9995 37.4935 83.7235 33.8275L85.3788 25.1681C86.2846 20.5738 83.9635 16.1808 79.4019 15.1228C74.7311 14.0414 68.6685 16.6679 67.586 21.3377L66.331 28.3173C65.3599 33.7152 68.8472 38.482 74.1899 39.7207Z" fill="#EBBC8F"/>
<path fill-rule="evenodd" clip-rule="evenodd" d="M90.8487 25.5622C90.2778 25.6296 89.7693 25.4764 89.273 25.2405C89.1331 25.1731 88.9432 25.0945 88.9534 24.925C88.9636 24.735 89.1729 24.8086 89.2975 24.7749C90.286 24.5165 90.9212 23.4422 90.5638 22.5814C90.0634 21.3795 89.3639 20.3461 88.1273 19.7681C87.7494 19.5914 87.538 19.3116 87.7188 18.8368C88.0895 17.8626 88.0262 16.869 87.7423 15.8876C87.5237 15.135 87.0806 14.5458 86.2636 14.4151C85.509 14.2936 84.8381 14.5448 84.3571 15.1575C84.1345 15.4404 83.8843 15.7059 83.7873 16.0919C83.7097 16.4003 83.5004 16.5647 83.2134 16.1848C81.2752 13.6135 77.2631 12.8211 74.2659 13.7555C74.5335 13.3215 74.7459 12.9058 74.8174 12.4279C74.9848 11.3169 74.9093 10.2784 73.931 9.52987C73.2713 9.02439 72.5167 8.94065 71.7008 9.03256C70.7123 9.14284 69.8994 9.54008 69.2214 10.259C68.674 10.84 68.2768 11.5201 67.9051 12.2135C67.7172 12.5637 66.3172 11.6968 65.9169 11.5722C64.9978 11.2842 64.0175 11.37 63.1077 11.658C61.6893 12.1063 61.2379 14.0393 61.9762 15.2698C62.5828 16.2808 63.4886 16.8955 64.5312 17.3489C65.1561 17.6216 65.1857 17.6308 64.6721 18.1107C62.6083 20.0366 61.4636 23.0307 62.9024 25.6755C63.1812 26.1892 63.556 26.6691 64.0635 26.9591C64.6609 27.3012 65.3798 27.3482 66.0251 27.5892C66.8727 27.9068 67.1985 28.4909 67.7877 29.0923C68.5842 29.9062 69.3204 27.773 69.7248 27.1409C70.5959 25.7807 71.468 24.4195 72.339 23.0593C72.3901 22.9786 72.4432 22.8959 72.5177 22.8346C72.7812 22.6161 73.1988 22.757 73.4296 23.0082C73.6614 23.2605 73.7778 23.5954 73.9729 23.8772C74.4293 24.54 75.2473 24.832 76.0121 25.0853C76.3246 25.1894 76.6483 25.2936 76.9761 25.2619C78.0841 25.1527 77.4316 23.7629 77.8319 23.044C77.9064 22.9092 77.9176 22.7223 78.1117 22.6998C78.3455 22.6733 78.3935 22.8755 78.464 23.0307C78.802 23.7751 79.0358 24.5624 79.381 25.3079C79.6985 25.9921 80.105 26.9019 80.7902 27.293C81.6531 27.7883 82.4434 27.1123 83.2645 27.9823C83.8618 28.6155 83.8812 29.5866 84.5287 30.2064C85.1771 30.8263 86.0645 30.7895 86.8467 30.3422C87.4329 30.0073 87.9363 29.3905 88.116 28.7329C88.1895 28.4602 88.3703 26.7845 88.1865 26.664C88.3509 26.7723 88.451 26.8315 88.5449 26.9009C89.3864 27.5228 90.815 27.1674 91.2694 26.2218C91.5053 25.7327 91.3725 25.4989 90.8487 25.5622Z" fill="#2B2D4D"/>
<path fill-rule="evenodd" clip-rule="evenodd" d="M61.6182 28.8957C61.174 30.8114 62.3667 32.723 64.2814 33.1672C66.1961 33.6104 68.1077 32.4177 68.5519 30.503C68.9961 28.5883 67.8034 26.6767 65.8887 26.2335C63.9741 25.7893 62.0614 26.981 61.6182 28.8957Z" fill="#EBBC8F"/>
<path fill-rule="evenodd" clip-rule="evenodd" d="M66.0578 31.0104C66.0578 31.0104 66.6399 28.4973 64.1451 28.3359L66.0578 31.0104Z" fill="#00023C" fill-opacity="0.18"/>
<path fill-rule="evenodd" clip-rule="evenodd" d="M78.4454 31.1992C78.4066 30.9296 78.2994 30.6518 78.1666 30.3833C78.0992 30.2485 78.0175 30.1167 77.8286 30.1443C77.6346 30.1719 77.556 30.3087 77.5355 30.4793C77.5202 30.6018 77.5182 30.7345 77.5458 30.854C77.6795 31.4432 77.6989 32.059 77.9358 32.6257C78.0043 32.7912 78.1043 32.9066 78.2963 32.877C78.5128 32.8412 78.6149 32.6799 78.62 32.4848C78.6343 32.059 78.5771 31.6383 78.4454 31.1992Z" fill="#00023C" fill-opacity="0.18"/>
<path fill-rule="evenodd" clip-rule="evenodd" d="M74.4835 25.8649C74.6244 25.7832 74.8041 25.7066 74.8501 25.5065C74.894 25.3165 74.7735 25.1624 74.6417 25.0653C74.2139 24.7529 73.7135 24.6732 73.2019 24.7335C72.9058 24.7682 72.8016 25.1082 72.9813 25.3451C73.1815 25.6086 74.1455 25.9497 74.4835 25.8649Z" fill="#D3CCFB"/>
<path fill-rule="evenodd" clip-rule="evenodd" d="M83.3115 26.1245C83.1502 26.0786 82.9755 26.0775 82.9061 26.0684C82.3669 26.0949 82.1024 26.2757 82.1239 26.5401C82.1474 26.821 82.4598 27.0221 82.8499 27.0272C83.0276 27.0293 83.1859 26.9833 83.3483 26.921C83.5341 26.8496 83.6812 26.7495 83.672 26.533C83.6618 26.3104 83.5076 26.1807 83.3115 26.1245Z" fill="#D3CCFB"/>
<path fill-rule="evenodd" clip-rule="evenodd" d="M77.8074 35.7356C77.8186 35.7315 77.8289 35.7274 77.8411 35.7244C78.0004 35.6743 78.2424 35.7213 78.2629 35.4875C78.2853 35.2403 78.03 35.271 77.882 35.2015C76.9721 35.2802 76.2491 34.9085 75.6405 34.2662C75.4506 34.2028 75.279 33.8607 75.0707 34.1385C74.8573 34.4203 75.23 34.5051 75.3505 34.6726C75.4261 34.7788 75.5802 34.8023 75.6293 34.9371C76.29 35.3792 77.0017 35.6856 77.8074 35.7356Z" fill="#2B2D4D"/>
<path fill-rule="evenodd" clip-rule="evenodd" d="M78.8268 28.3722L77.1051 28.0433L77.2011 27.543L78.9228 27.8718L78.8268 28.3722Z" fill="white"/>
<path fill-rule="evenodd" clip-rule="evenodd" d="M69.6567 27.8799L64.2517 25.6905L64.4437 25.2188L69.8477 27.4071L69.6567 27.8799Z" fill="white"/>
<mask id="mask4" mask-type="alpha" maskUnits="userSpaceOnUse" x="69" y="23" width="9" height="9">
<path fill-rule="evenodd" clip-rule="evenodd" d="M69.6187 23.8555H77.352V31.8988H69.6187V23.8555Z" fill="white"/>
</mask>
<g mask="url(#mask4)">
<path fill-rule="evenodd" clip-rule="evenodd" d="M70.1282 27.8727C70.1252 29.8099 71.6293 31.3876 73.4797 31.3907H73.4848C74.3783 31.3907 75.2177 31.0281 75.8519 30.3685C76.4891 29.7067 76.8414 28.8234 76.8424 27.884C76.8465 25.9468 75.3423 24.3681 73.4909 24.364H73.4858C71.6375 24.364 70.1313 25.9366 70.1282 27.8727ZM73.4848 31.8992H73.4787C71.3475 31.8961 69.6156 30.0897 69.6187 27.8727C69.6227 25.6558 71.3567 23.8555 73.4858 23.8555H73.4919C75.6241 23.8596 77.356 25.667 77.352 27.884C77.3509 28.9562 76.9486 29.9641 76.2185 30.7218C75.4883 31.4815 74.5172 31.8992 73.4848 31.8992Z" fill="white"/>
</g>
<mask id="mask5" mask-type="alpha" maskUnits="userSpaceOnUse" x="78" y="25" width="8" height="8">
<path fill-rule="evenodd" clip-rule="evenodd" d="M78.4742 25.3184H85.7723V32.9066H78.4742V25.3184Z" fill="white"/>
</mask>
<g mask="url(#mask5)">
<path fill-rule="evenodd" clip-rule="evenodd" d="M78.7295 29.1069H78.9848C78.9818 30.9184 80.3879 32.395 82.1188 32.3981H82.1239C83.8517 32.3981 85.2599 30.9266 85.263 29.1181C85.266 27.3055 83.8599 25.83 82.129 25.8269H82.1239C81.2886 25.8269 80.5033 26.1659 79.911 26.7827C79.3147 27.4026 78.9848 28.2287 78.9848 29.1069H78.7295ZM82.1239 32.9066H82.1178C80.1061 32.9036 78.4722 31.1993 78.4742 29.1069C78.4763 28.0949 78.8562 27.1442 79.5444 26.4294C80.2337 25.7125 81.1497 25.3184 82.1239 25.3184H82.13C84.1417 25.3214 85.7756 27.0257 85.7725 29.1181C85.7684 31.2084 84.1325 32.9066 82.1239 32.9066Z" fill="white"/>
</g>
<path fill-rule="evenodd" clip-rule="evenodd" d="M80.6873 28.4512C80.7557 28.3981 80.8241 28.3521 80.8874 28.3154C81.2234 28.1214 81.6329 28.0866 82.0158 28.15C82.46 28.2235 82.9185 28.4359 83.2678 28.7177C83.4301 28.8484 83.5823 29.0853 83.6497 29.2804C83.7344 29.5265 83.5772 29.7399 83.2923 29.6143C82.8573 29.4223 82.6398 28.8964 82.1414 28.7698C81.6554 28.6483 81.1887 28.876 80.8006 29.1517C80.7077 29.2181 80.6056 29.2732 80.5178 29.3457C80.2288 29.5857 80.0664 29.2528 80.1706 28.9822C80.2564 28.7576 80.5137 28.585 80.6873 28.4512Z" fill="#2B2D4D"/>
<path fill-rule="evenodd" clip-rule="evenodd" d="M72.2357 27.2019C72.3245 27.1335 72.4123 27.0733 72.495 27.0253C72.929 26.773 73.46 26.7291 73.9553 26.8108C74.5302 26.9068 75.1225 27.1805 75.5759 27.5461C75.7852 27.7146 75.9833 28.0219 76.0701 28.2752C76.1794 28.5917 75.9762 28.8685 75.6065 28.7071C75.0439 28.459 74.7631 27.7758 74.1177 27.6145C73.4897 27.4572 72.8851 27.7503 72.3827 28.1077C72.2622 28.1935 72.1305 28.265 72.0171 28.3599C71.6413 28.6704 71.432 28.2394 71.5668 27.8882C71.6781 27.5981 72.01 27.3745 72.2357 27.2019Z" fill="#2B2D4D"/>
<path fill-rule="evenodd" clip-rule="evenodd" d="M71.5506 52.1249L79.4371 49.624L79.725 45.6221C78.775 46.6267 76.739 46.8394 73.6171 46.2601C70.4952 45.6809 67.5506 44.544 64.7833 42.8496L71.5506 52.1249Z" fill="#B2790F"/>
<path fill-rule="evenodd" clip-rule="evenodd" d="M99.3666 76.4148C99.4069 76.4299 99.8502 76.4943 100.696 76.608C101.965 76.7786 103.336 76.8214 104.762 76.7704C106.187 76.7214 107.665 76.5784 109.171 76.3834C110.678 76.1873 112.214 75.9392 113.771 75.6675L113.78 75.6655C116.077 75.2662 118.263 76.8041 118.664 79.1017C119.045 81.2911 117.65 83.3845 115.53 83.9206C113.935 84.3209 112.31 84.7089 110.639 85.052C108.968 85.3941 107.25 85.6933 105.462 85.8904C103.674 86.0855 101.811 86.1814 99.8682 86.0722C97.929 85.9609 95.8979 85.6361 93.8821 84.9683C92.5924 84.5415 91.6182 83.5989 91.1117 82.445L90.9943 82.1734L79.8482 56.4829C78.5953 53.595 79.9207 50.2384 82.8086 48.9855C85.6965 47.7335 89.053 49.059 90.306 51.9458C90.3448 52.0367 90.3887 52.146 90.4224 52.2369L99.3666 76.4148Z" fill="#EBBC8F"/>
<path fill-rule="evenodd" clip-rule="evenodd" d="M92.1742 68.8868C93.129 66.5228 91.8434 64.2324 90.8692 59.3338C90.7089 58.5322 90.5628 57.7163 90.4423 56.8902C90.378 56.4511 90.3841 56.7268 90.3882 56.8677C90.3831 56.8105 90.3729 56.7544 90.3688 56.6961C90.3668 56.6716 90.3637 56.6451 90.3617 56.6206C90.3566 56.543 90.3514 56.4684 90.3463 56.3929C90.3269 56.1182 90.3096 55.8506 90.2932 55.5923C90.1789 53.7828 90.1258 52.3623 89.8204 51.1982C89.7336 50.8663 89.6254 50.5538 89.4906 50.2597C89.0842 49.3775 88.4276 48.6555 87.3237 48.0091C86.6497 47.6129 85.8103 47.2483 84.7595 46.8889C84.3225 46.7408 79.8385 45.2703 79.7252 45.6226C79.0941 47.5577 77.6992 49.2937 75.8141 50.0616C73.9301 50.8306 71.5681 50.4926 70.1569 49.0262C69.5615 48.4053 69.1561 47.6323 68.7599 46.8695C68.3933 46.1659 68.0267 45.4633 67.6601 44.7587C67.3476 44.1573 67.0107 43.5292 66.448 43.1514C65.1041 42.2507 61.1093 43.6252 59.6338 43.9142C59.1844 44.002 58.7208 44.097 58.2511 44.1961C57.039 44.4534 56.0423 44.9037 55.2346 45.5062C51.733 48.1194 51.7922 53.6051 53.3423 58.7466C53.7804 60.1977 54.1858 61.6968 54.5504 63.1979C54.6014 63.4001 54.6505 63.6013 54.6974 63.8035C54.771 64.1139 54.8424 64.4233 54.9139 64.7348C56.0004 69.5189 56.6826 74.1846 56.7949 77.3186C56.8715 79.4232 57.6966 91.9601 57.4413 94.6018C57.3862 95.1747 57.3229 95.7598 57.2493 96.3603L57.2504 96.3593L57.2483 96.3603C57.2483 96.3603 57.1299 98.3914 59.8666 98.7202L89.705 101.164C89.705 101.164 91.5135 100.046 90.9672 97.7307L90.9601 97.7276C90.9631 97.7286 90.9672 97.7297 90.9672 97.7297C90.9315 97.2538 90.8998 96.7963 90.8692 96.3593C90.8304 95.768 89.8419 77.0153 89.8174 76.5129C89.7857 75.89 89.7684 75.3406 89.7633 74.8811C89.7622 74.7606 89.7612 74.6452 89.7622 74.5369C89.7633 74.5226 89.7633 74.5083 89.7633 74.4941C89.7633 74.4941 91.1531 71.4183 92.1742 68.8868Z" fill="#EA9800"/>
<path fill-rule="evenodd" clip-rule="evenodd" d="M56.4878 94.5797C56.4878 94.5797 57.0586 95.9134 55.9026 96.0676C55.0071 96.1871 54.5302 95.7204 54.5302 95.7204C54.5302 95.7204 54.6435 97.3032 52.8473 97.0142C51.7322 96.8345 47.1104 93.3533 45.3703 91.0792C43.6303 88.8081 46.1709 83.7401 50.4853 83.8555C50.4853 83.8555 57.2026 84.7531 60.1047 87.4643C63.0069 90.1744 61.0851 91.7031 60.7583 91.94C60.7011 91.9819 60.6511 92.0146 60.6031 92.0421C60.7307 92.4731 60.6756 93.0235 59.9158 93.4524C59.4348 93.722 59.106 93.7352 58.8824 93.6464C58.6557 93.3063 58.43 93.0643 58.43 93.0643C58.43 93.0643 58.5097 93.4973 58.8824 93.6464C59.2582 94.2121 59.0356 94.7125 58.4055 95.1751C57.609 95.7582 56.4878 94.5797 56.4878 94.5797Z" fill="#EBBC8F"/>
<path fill-rule="evenodd" clip-rule="evenodd" d="M127.843 78.9864C126.502 80.2751 121.357 81.6863 119.97 82.4144C118.586 83.1374 113.508 83.8338 113.508 83.8338L111.339 79.4469C111.339 79.4469 111.169 78.3389 113.677 75.7309C116.178 73.1177 120.454 68.7533 121.37 69.1975C122.254 69.6294 120.175 73.3822 119.707 74.1644L119.661 74.2379C119.632 74.2829 119.659 74.291 119.737 74.2788C120.614 74.0878 128.02 70.0992 128.664 70.9253C128.856 71.1785 128.985 71.8311 129.035 72.6592C129.038 72.7154 129.041 72.7726 129.041 72.8349C129.07 73.4465 129.061 74.144 129.01 74.8455C129.01 74.9089 129.004 74.9671 128.995 75.0314C128.938 75.7309 128.84 76.4335 128.698 77.0553C128.68 77.1217 128.665 77.183 128.65 77.2443C128.458 78.0214 128.19 78.6576 127.843 78.9864Z" fill="#EBBC8F"/>
<path fill-rule="evenodd" clip-rule="evenodd" d="M117.533 78.8154L117.529 78.8123C117.491 78.7868 117.483 78.7347 117.509 78.6969C118.696 77.0447 119.575 74.2436 119.583 74.216C119.597 74.1721 119.644 74.1486 119.687 74.1619C119.729 74.1742 119.755 74.2222 119.742 74.2661C119.732 74.2936 118.846 77.1192 117.644 78.7939C117.619 78.8297 117.57 78.8378 117.533 78.8154Z" fill="#7362A5"/>
<path fill-rule="evenodd" clip-rule="evenodd" d="M129.041 72.8338L121.659 75.7911C121.633 75.7973 121.608 75.7973 121.586 75.784C121.57 75.7728 121.561 75.7605 121.552 75.7391C121.538 75.6992 121.557 75.6563 121.6 75.6369L129.035 72.6582C129.038 72.7154 129.041 72.7716 129.041 72.8338Z" fill="#7362A5"/>
<path fill-rule="evenodd" clip-rule="evenodd" d="M128.995 75.0296L122.53 77.4232C122.508 77.4334 122.479 77.4304 122.457 77.4161C122.445 77.4089 122.432 77.3926 122.424 77.3803C122.409 77.3313 122.427 77.2884 122.471 77.268L129.011 74.8438C129.011 74.9071 129.004 74.9663 128.995 75.0296Z" fill="#7362A5"/>
<path fill-rule="evenodd" clip-rule="evenodd" d="M128.651 77.2436L122.971 79.3564C122.943 79.3635 122.914 79.3605 122.897 79.3503C122.881 79.339 122.867 79.3227 122.864 79.3053C122.849 79.2645 122.866 79.2134 122.912 79.2022L128.699 77.0547C128.68 77.1211 128.666 77.1823 128.651 77.2436Z" fill="#7362A5"/>
<mask id="mask6" mask-type="alpha" maskUnits="userSpaceOnUse" x="115" y="65" width="23" height="19">
<path fill-rule="evenodd" clip-rule="evenodd" d="M115.807 65.1094H137.132V83.6555H115.807V65.1094Z" fill="white"/>
</mask>
<g mask="url(#mask6)">
<path fill-rule="evenodd" clip-rule="evenodd" d="M131.901 65.3459L136.95 70.6856C137.23 70.9838 137.181 71.4464 136.839 71.719L122.165 83.4614C121.823 83.7361 121.319 83.7167 121.038 83.4195L115.988 78.0788C115.708 77.7817 115.757 77.3191 116.098 77.0454L130.774 65.303C131.115 65.0283 131.62 65.0488 131.901 65.3459Z" fill="#5C616E"/>
</g>
<path fill-rule="evenodd" clip-rule="evenodd" d="M130.928 64.3143L135.976 69.655C136.257 69.9521 136.208 70.4147 135.866 70.6884L121.192 82.4308C120.85 82.7045 120.345 82.685 120.065 82.3879L115.015 77.0482C114.734 76.7511 114.784 76.2885 115.125 76.0148L129.8 64.2714C130.141 63.9977 130.647 64.0171 130.928 64.3143Z" fill="#A2A6B3"/>
<circle cx="119" cy="79" r="1" fill="#EBEBEB"/>
<path fill-rule="evenodd" clip-rule="evenodd" d="M129.565 65.5664L134.001 70.2597L122.042 79.8301L117.606 75.1368L129.565 65.5664Z" fill="#EBEBEB"/>
<path fill-rule="evenodd" clip-rule="evenodd" d="M134.001 70.2597L117.605 75.1368L129.565 65.5664L134.001 70.2597Z" fill="#EFF2F9"/>
<path fill-rule="evenodd" clip-rule="evenodd" d="M54.8128 60.9338C51.0896 63.3877 47.2705 65.6965 43.3676 67.8532C42.4587 68.3567 41.5009 68.8917 40.979 69.7893C39.5167 72.3014 44.1743 76.6761 45.5794 78.3906C46.185 79.1279 46.8028 79.8611 47.4298 80.5872C47.7432 80.9507 48.0588 81.3101 48.3754 81.6675L48.8502 82.1986L49.3056 82.7L49.3771 82.7796C51.3255 84.924 51.1662 88.2418 49.0207 90.1902C47.8934 91.2144 48.0802 93.1781 46.6435 92.4858C43.2665 89.0353 39.9742 85.4908 36.7892 81.8626C33.3019 77.8903 25.2235 70.5961 28.9691 64.899C30.168 63.0752 32.005 61.7834 33.7962 60.5366C40.2111 56.0761 46.6251 51.6146 53.04 47.1542C54.3737 46.2259 55.9136 45.2528 57.5046 45.5806C58.5033 45.7858 59.3345 46.4884 59.9595 47.2941C61.7394 49.5948 62.0355 52.9483 60.6845 55.5247C59.549 57.6885 57.4668 59.1692 55.4326 60.5233C55.2264 60.6601 55.0201 60.797 54.8128 60.9338Z" fill="#EBBC8F"/>
</svg>
