<svg width="188" height="180" viewBox="0 0 188 180" fill="none" xmlns="http://www.w3.org/2000/svg">
<circle cx="90.5004" cy="90" r="90" fill="#F0F5EF"/>
<path d="M54.38 74.9023H123.962L135.559 109.693H42.783L54.38 74.9023Z" fill="#E6E6E6"/>
<path d="M28.2865 147.385V161.881C28.2865 162.65 28.592 163.387 29.1357 163.931C29.6794 164.475 30.4168 164.78 31.1858 164.78H54.3798C55.1487 164.78 55.8862 164.475 56.4299 163.931C56.9736 163.387 57.2791 162.65 57.2791 161.881V147.385H28.2865Z" fill="#444444"/>
<path d="M121.062 147.385V161.881C121.062 162.65 121.368 163.387 121.912 163.931C122.455 164.475 123.193 164.78 123.962 164.78H147.156C147.925 164.78 148.662 164.475 149.206 163.931C149.75 163.387 150.055 162.65 150.055 161.881V147.385H121.062Z" fill="#444444"/>
<path d="M147.507 117.543L138.09 108.126L128.021 77.9503C127.444 76.221 126.339 74.7166 124.861 73.6496C123.383 72.5826 121.607 72.0069 119.784 72.0039H58.5577C56.7349 72.0069 54.959 72.5826 53.481 73.6496C52.003 74.7166 50.8976 76.221 50.321 77.9503L40.2489 108.126L30.8322 117.545C29.2027 119.176 28.2871 121.387 28.2866 123.692V147.385H150.055V123.695C150.055 122.552 149.83 121.421 149.393 120.365C148.956 119.309 148.315 118.35 147.507 117.543ZM55.8064 79.7855C55.9987 79.208 56.368 78.7056 56.8618 78.3497C57.3557 77.9937 57.949 77.8023 58.5577 77.8024H119.784C120.393 77.8023 120.986 77.9937 121.48 78.3497C121.974 78.7056 122.343 79.208 122.536 79.7855L131.538 106.795H46.8042L55.8064 79.7855Z" fill="#72C472"/>
<path d="M150.055 141.586H28.2865V150.284H150.055V141.586Z" fill="#4DA34D"/>
<path d="M45.6822 132.888C48.8846 132.888 51.4807 130.292 51.4807 127.09C51.4807 123.887 48.8846 121.291 45.6822 121.291C42.4797 121.291 39.8837 123.887 39.8837 127.09C39.8837 130.292 42.4797 132.888 45.6822 132.888Z" fill="#E6E6E6"/>
<path d="M132.66 132.888C135.862 132.888 138.458 130.292 138.458 127.09C138.458 123.887 135.862 121.291 132.66 121.291C129.457 121.291 126.861 123.887 126.861 127.09C126.861 130.292 129.457 132.888 132.66 132.888Z" fill="#E6E6E6"/>
<path d="M100.768 129.988H77.5741C76.8051 129.988 76.0677 129.683 75.524 129.139C74.9803 128.595 74.6748 127.858 74.6748 127.089C74.6748 126.32 74.9803 125.582 75.524 125.039C76.0677 124.495 76.8051 124.189 77.5741 124.189H100.768C101.537 124.189 102.274 124.495 102.818 125.039C103.362 125.582 103.667 126.32 103.667 127.089C103.667 127.858 103.362 128.595 102.818 129.139C102.274 129.683 101.537 129.988 100.768 129.988Z" fill="#4DA34D"/>
<path fill-rule="evenodd" clip-rule="evenodd" d="M51.4972 159.703L45.1145 159.675L43.7998 150.723L50.1825 150.751L51.4972 159.703Z" fill="#EBBC8F"/>
<path fill-rule="evenodd" clip-rule="evenodd" d="M45.3796 157.95C46.855 158.359 50.1937 159.697 51.7595 157.338L62.3466 163.299L43.6573 163.172L44.5284 158.533C44.5887 158.113 44.9852 157.841 45.3796 157.95Z" fill="#744C2E"/>
<path fill-rule="evenodd" clip-rule="evenodd" d="M62.3345 164.834L43.6459 164.706L43.6574 163.023L62.3461 163.151L62.3345 164.834Z" fill="#99643D"/>
<path fill-rule="evenodd" clip-rule="evenodd" d="M40.4252 80.8984C40.4252 80.8984 44.0169 88.8077 48.2235 113.215C52.4308 137.622 52.9959 154.024 52.9959 154.024H40.0547L28.7703 85.8896L31.6542 83.2326L37.7059 80.8984H40.4252Z" fill="#596818"/>
<path fill-rule="evenodd" clip-rule="evenodd" d="M30.2919 159.453L24.0237 159.425L24.059 150.619L30.3279 150.647L30.2919 159.453Z" fill="#EBBC8F"/>
<path fill-rule="evenodd" clip-rule="evenodd" d="M24.0739 157.803C25.5492 158.212 28.8879 159.55 30.4537 157.191L41.0409 163.152L22.3516 163.025L23.2227 158.387C23.2829 157.966 23.6794 157.694 24.0739 157.803Z" fill="#744C2E"/>
<path fill-rule="evenodd" clip-rule="evenodd" d="M41.0291 164.834L22.3405 164.706L22.352 163.023L41.0406 163.151L41.0291 164.834Z" fill="#99643D"/>
<mask id="mask0" mask-type="alpha" maskUnits="userSpaceOnUse" x="19" y="75" width="21" height="80">
<path fill-rule="evenodd" clip-rule="evenodd" d="M19.4247 75.7129H39.2881V154.023H19.4247V75.7129Z" fill="white"/>
</mask>
<g mask="url(#mask0)">
<path fill-rule="evenodd" clip-rule="evenodd" d="M26.4317 80.8984C26.4317 80.8984 19.8183 89.0321 19.4976 100.817C19.1275 114.413 20.2866 154.024 20.2866 154.024L32.6788 153.709L39.2883 80.8984H26.4317Z" fill="#83952F"/>
</g>
<path fill-rule="evenodd" clip-rule="evenodd" d="M36.0314 48.0019L35.9018 52.9212C35.8595 54.6486 34.7729 55.5467 33.073 55.4921C31.6214 55.4453 30.2827 54.6518 30.1493 53.206L30.7253 45.4746L36.0314 48.0019Z" fill="#ECBC8F"/>
<path fill-rule="evenodd" clip-rule="evenodd" d="M35.9517 50.4037C32.509 50.4069 30.3236 46.3145 30.3236 46.3145L36.055 47.5011L35.9517 50.4037Z" fill="#00023C" fill-opacity="0.18"/>
<path fill-rule="evenodd" clip-rule="evenodd" d="M34.5271 48.1508C37.3995 48.1597 39.7716 45.8973 39.8576 43.5516L40.0269 38.0165C40.134 35.0761 38.2597 32.5815 35.3251 32.3769C32.3205 32.1677 28.8201 34.3981 28.6104 37.402L28.5231 41.8556C28.4551 45.3002 31.0902 47.9115 34.5271 48.1508Z" fill="#ECBC8F"/>
<path fill-rule="evenodd" clip-rule="evenodd" d="M25.8418 41.3169C25.7559 42.5485 26.6847 43.6165 27.9169 43.7018C29.1485 43.7878 30.2165 42.8583 30.3018 41.6268C30.3878 40.3952 29.459 39.3272 28.2267 39.2418C26.9951 39.1559 25.9271 40.0847 25.8418 41.3169Z" fill="#ECBC8F"/>
<path fill-rule="evenodd" clip-rule="evenodd" d="M28.8051 42.19C28.8051 42.19 28.9173 40.5729 27.3541 40.7205L28.8051 42.19Z" fill="#00023C" fill-opacity="0.18"/>
<path fill-rule="evenodd" clip-rule="evenodd" d="M29.5658 35.7408C29.7292 36.7012 29.943 37.4255 30.2073 37.9137C29.7697 38.7576 29.4573 39.7866 29.2699 41.0004C29.0874 41.218 28.937 41.2616 28.8186 41.1313C28.6724 40.9701 28.5927 40.7572 28.523 40.5496C28.336 39.9904 28.339 39.811 28.1827 39.3635C27.4563 37.2837 27.4558 34.3105 29.9805 32.348C32.0421 30.7454 37.9574 30.9968 39.8942 34.7514C40.1725 35.291 39.9751 36.2746 39.8942 36.0927C36.5518 36.4327 33.109 36.3154 29.5658 35.7408Z" fill="#2B2D4D"/>
<path fill-rule="evenodd" clip-rule="evenodd" d="M36.359 42.6981C36.3347 42.5288 36.2673 42.3543 36.1839 42.1856C36.1416 42.1009 36.0903 42.0182 35.9716 42.0355C35.8497 42.0528 35.8003 42.1388 35.7875 42.2459C35.7779 42.3229 35.7766 42.4063 35.7939 42.4813C35.878 42.8514 35.8901 43.2382 36.039 43.5942C36.0819 43.6982 36.1448 43.7706 36.2654 43.752C36.4014 43.7296 36.4655 43.6282 36.4687 43.5057C36.4777 43.2382 36.4418 42.974 36.359 42.6981Z" fill="#00023C" fill-opacity="0.18"/>
<path fill-rule="evenodd" clip-rule="evenodd" d="M33.8703 39.3474C33.9588 39.2961 34.0717 39.248 34.1005 39.1223C34.1281 39.003 34.0524 38.9061 33.9697 38.8452C33.7009 38.6489 33.3866 38.5989 33.0652 38.6367C32.8792 38.6585 32.8138 38.8721 32.9267 39.0209C33.0524 39.1864 33.6579 39.4007 33.8703 39.3474Z" fill="#D3CCFB"/>
<path fill-rule="evenodd" clip-rule="evenodd" d="M39.4158 39.5099C39.3145 39.481 39.2048 39.4804 39.1612 39.4746C38.8225 39.4913 38.6564 39.6048 38.6698 39.771C38.6846 39.9474 38.8809 40.0737 39.1259 40.0769C39.2375 40.0782 39.3369 40.0493 39.4389 40.0102C39.5557 39.9653 39.648 39.9025 39.6423 39.7665C39.6358 39.6266 39.539 39.5452 39.4158 39.5099Z" fill="#D3CCFB"/>
<path fill-rule="evenodd" clip-rule="evenodd" d="M35.9579 45.5452C35.9649 45.5426 35.9713 45.5401 35.979 45.5382C36.0791 45.5067 36.2311 45.5362 36.2439 45.3893C36.2581 45.2341 36.0977 45.2534 36.0047 45.2097C35.4331 45.2591 34.979 45.0256 34.5967 44.6222C34.4774 44.5824 34.3696 44.3675 34.2388 44.542C34.1047 44.719 34.3388 44.7723 34.4145 44.8775C34.462 44.9442 34.5588 44.9589 34.5896 45.0436C35.0047 45.3213 35.4517 45.5138 35.9579 45.5452Z" fill="#2A0952"/>
<path fill-rule="evenodd" clip-rule="evenodd" d="M36.5988 40.9212L35.5173 40.7147L35.5776 40.4004L36.6591 40.6069L36.5988 40.9212Z" fill="#6856C8"/>
<path fill-rule="evenodd" clip-rule="evenodd" d="M30.8382 40.6111L27.443 39.2358L27.5636 38.9395L30.9581 40.3141L30.8382 40.6111Z" fill="#6856C8"/>
<mask id="mask1" mask-type="alpha" maskUnits="userSpaceOnUse" x="30" y="38" width="6" height="6">
<path fill-rule="evenodd" clip-rule="evenodd" d="M30.8147 38.084H35.6724V43.1364H30.8147V38.084Z" fill="white"/>
</mask>
<g mask="url(#mask1)">
<path fill-rule="evenodd" clip-rule="evenodd" d="M31.1349 40.6074C31.133 41.8243 32.0778 42.8153 33.2401 42.8172H33.2434C33.8046 42.8172 34.3319 42.5895 34.7302 42.1752C35.1305 41.7595 35.3518 41.2046 35.3524 40.6145C35.355 39.3977 34.4102 38.406 33.2472 38.4034H33.244C32.083 38.4034 31.1368 39.3913 31.1349 40.6074ZM33.2434 43.1367H33.2395C31.9008 43.1348 30.8129 42 30.8148 40.6074C30.8174 39.2149 31.9066 38.084 33.244 38.084H33.2478C34.5872 38.0866 35.6751 39.2219 35.6725 40.6145C35.6719 41.288 35.4192 41.9211 34.9605 42.3971C34.5019 42.8743 33.8919 43.1367 33.2434 43.1367Z" fill="#6856C8"/>
</g>
<mask id="mask2" mask-type="alpha" maskUnits="userSpaceOnUse" x="36" y="39" width="5" height="5">
<path fill-rule="evenodd" clip-rule="evenodd" d="M36.3771 39.0059H40.9614V43.7725H36.3771V39.0059Z" fill="white"/>
</mask>
<g mask="url(#mask2)">
<path fill-rule="evenodd" clip-rule="evenodd" d="M36.5374 41.3856H36.6978C36.6959 42.5236 37.5792 43.4511 38.6664 43.453H38.6696C39.755 43.453 40.6395 42.5287 40.6414 41.3927C40.6434 40.2541 39.7601 39.3272 38.6728 39.3253H38.6696C38.1449 39.3253 37.6516 39.5383 37.2796 39.9257C36.905 40.3151 36.6978 40.834 36.6978 41.3856H36.5374ZM38.6696 43.7725H38.6658C37.4021 43.7706 36.3758 42.7 36.3771 41.3856C36.3784 40.75 36.617 40.1528 37.0493 39.7038C37.4823 39.2535 38.0577 39.0059 38.6696 39.0059H38.6735C39.9371 39.0078 40.9634 40.0784 40.9615 41.3927C40.959 42.7057 39.9314 43.7725 38.6696 43.7725Z" fill="#6856C8"/>
</g>
<path fill-rule="evenodd" clip-rule="evenodd" d="M37.7669 40.971C37.8099 40.9377 37.8529 40.9088 37.8927 40.8857C38.1037 40.7638 38.3609 40.742 38.6015 40.7818C38.8805 40.828 39.1685 40.9614 39.3879 41.1384C39.4899 41.2206 39.5855 41.3694 39.6278 41.4919C39.681 41.6465 39.5823 41.7805 39.4033 41.7016C39.13 41.5811 38.9934 41.2507 38.6804 41.1712C38.375 41.0948 38.0819 41.2379 37.8381 41.4111C37.7798 41.4528 37.7156 41.4874 37.6605 41.5329C37.4789 41.6837 37.3769 41.4746 37.4424 41.3046C37.4963 41.1635 37.6579 41.0551 37.7669 40.971Z" fill="#2A0952"/>
<path fill-rule="evenodd" clip-rule="evenodd" d="M32.458 40.1852C32.5138 40.1422 32.569 40.1044 32.6209 40.0742C32.8936 39.9158 33.2271 39.8882 33.5382 39.9395C33.8994 39.9998 34.2714 40.1717 34.5562 40.4013C34.6877 40.5072 34.8121 40.7003 34.8667 40.8593C34.9353 41.0582 34.8076 41.232 34.5754 41.1307C34.222 40.9748 34.0456 40.5457 33.6402 40.4443C33.2457 40.3455 32.866 40.5296 32.5504 40.7541C32.4747 40.808 32.3919 40.8529 32.3207 40.9126C32.0847 41.1076 31.9532 40.8369 32.0379 40.6162C32.1078 40.4341 32.3163 40.2936 32.458 40.1852Z" fill="#2A0952"/>
<path fill-rule="evenodd" clip-rule="evenodd" d="M32.52 50.1536C33.7696 50.2922 35.0602 50.1979 36.261 49.8354C37.3194 50.1369 39.9333 50.6283 39.9333 50.6283C39.9243 51.5783 38.7363 53.3429 38.0763 54.0248C37.4791 54.6412 36.6882 55.035 35.88 55.3237C34.377 55.8593 32.7304 56.0633 31.1704 55.7272C29.6091 55.3917 28.146 54.4827 27.298 53.1299C27.0215 52.688 26.1838 52.0382 26.2063 51.518C26.2063 51.518 29.7766 50.1671 30.8356 49.6719C31.5675 49.9022 31.7567 50.0696 32.52 50.1536Z" fill="#ECBC8F"/>
<path fill-rule="evenodd" clip-rule="evenodd" d="M37.3672 50.6257C42.1569 50.7758 59.8584 59.5643 59.8584 59.5643L74.7118 47.3466C74.7118 47.3466 75.4937 45.3203 77.2975 45.2606C79.1019 45.2003 79.5829 45.2003 79.1615 47.9662C78.7407 50.7328 76.8767 50.8528 75.4937 50.6725C75.4937 50.6725 67.1798 64.5013 59.8584 65.4101C52.5369 66.3189 39.9332 57.5064 39.9332 57.5064L37.3672 50.6257Z" fill="#ECBC8F"/>
<path fill-rule="evenodd" clip-rule="evenodd" d="M81.4087 46.4261C80.9623 47.2414 78.7197 48.6853 78.1662 49.2414C77.6145 49.7931 75.2976 50.8855 75.2976 50.8855L73.6055 49.1176C73.6055 49.1176 73.3579 48.6154 74.1635 46.9957C74.966 45.3741 76.3515 42.6518 76.8544 42.7262C77.3413 42.8 76.9115 44.9014 76.805 45.3452L76.7948 45.3869C76.7877 45.4126 76.8012 45.4126 76.8371 45.3946C77.2264 45.1727 80.1624 42.1611 80.5934 42.4581C80.7223 42.5505 80.8821 42.8423 81.029 43.2297C81.0392 43.256 81.0488 43.283 81.0585 43.3125C81.1643 43.5999 81.2644 43.9341 81.3452 44.276C81.3542 44.3061 81.3606 44.335 81.3657 44.367C81.4433 44.7089 81.5017 45.0592 81.528 45.3767C81.5287 45.412 81.5306 45.4428 81.5325 45.4742C81.5575 45.8738 81.5254 46.2176 81.4087 46.4261Z" fill="#ECBC8F"/>
<path fill-rule="evenodd" clip-rule="evenodd" d="M76.4653 47.8898C76.464 47.8898 76.4634 47.8891 76.4628 47.8891C76.4416 47.8821 76.4294 47.8583 76.4365 47.8372C76.7546 46.8705 76.7546 45.4035 76.754 45.3894C76.7546 45.3656 76.7726 45.3477 76.7957 45.3477C76.8181 45.347 76.8367 45.3656 76.8374 45.3887C76.8374 45.4035 76.8374 46.884 76.5147 47.8628C76.5077 47.8833 76.4859 47.8955 76.4653 47.8898Z" fill="#7362A5"/>
<path fill-rule="evenodd" clip-rule="evenodd" d="M81.0588 43.3113L77.9805 45.8277C77.969 45.8354 77.9574 45.8386 77.9452 45.8354C77.935 45.8328 77.9292 45.8283 77.9215 45.8187C77.9093 45.802 77.9119 45.7789 77.9292 45.7629L81.0293 43.2285C81.0396 43.2548 81.0492 43.2818 81.0588 43.3113Z" fill="#7362A5"/>
<path fill-rule="evenodd" clip-rule="evenodd" d="M81.3655 44.3665L78.6406 46.4768C78.6317 46.4845 78.6175 46.4878 78.6041 46.4845C78.5983 46.4826 78.5893 46.4768 78.5836 46.4717C78.5688 46.4512 78.5714 46.4281 78.5893 46.4114L81.3456 44.2754C81.354 44.3055 81.3604 44.3344 81.3655 44.3665Z" fill="#7362A5"/>
<path fill-rule="evenodd" clip-rule="evenodd" d="M81.5327 45.4758L79.14 47.3347C79.1279 47.3424 79.1137 47.345 79.1041 47.3424C79.0939 47.3398 79.0855 47.334 79.081 47.3263C79.0682 47.309 79.0682 47.2821 79.0881 47.2705L81.5275 45.3789C81.5282 45.4135 81.5307 45.4443 81.5327 45.4758Z" fill="#7362A5"/>
<path fill-rule="evenodd" clip-rule="evenodd" d="M47.1489 52.3235C49.5177 53.5769 51.8873 55.0478 54.555 55.3037C54.0792 56.3784 52.8924 58.7449 52.1464 59.5315C51.5101 60.2037 46.3323 64.0813 45.2142 64.3494C44.4759 64.5265 43.5741 64.658 43.0648 64.0941C42.7492 63.7439 42.701 63.2365 42.6401 62.7683C42.193 59.3532 38.7593 55.6539 38.581 52.1991C38.4149 48.9867 44.9025 51.1349 47.1489 52.3235Z" fill="#A0DCE0"/>
<path fill-rule="evenodd" clip-rule="evenodd" d="M27.3458 51.0723L23.4567 51.8587L19.9287 65.1483C19.9287 65.1483 19.4617 89.2104 20.7934 89.4426C22.0218 89.6568 43.5816 88.6568 47.0736 85.1827L43.8426 68.8771C43.8426 68.8771 44.1768 66.2497 43.9966 61.9199C43.8163 57.5901 40.2948 51.6779 39.9336 50.6259L38.4653 50.3359C38.4653 50.3359 37.8938 52.4861 37.3614 53.159C36.3492 54.4367 34.8014 55.3174 33.1593 55.397C30.5454 55.5246 27.9751 53.6125 27.3458 51.0723Z" fill="#A0DCE0"/>
<path fill-rule="evenodd" clip-rule="evenodd" d="M24.6664 60.4054L25.2957 61.7275C27.3622 67.8335 30.0563 73.906 32.8497 79.4598C37.3353 80.8107 41.8644 82.0207 46.4276 83.0817C47.8437 83.4104 49.7704 83.3992 51.0795 83.8828C52.2177 84.3023 52.921 85.3675 52.2735 86.4631C51.5431 87.6966 49.1993 87.4437 48.0499 87.4906C44.2935 87.6426 40.5259 87.4167 36.8018 86.9184C34.3598 86.5969 31.9624 86.1579 29.6415 85.6439C28.4052 85.3692 27.3399 84.5846 26.7165 83.4825C25.2728 80.9304 24.0136 78.4628 22.9389 76.1912C20.2912 70.5828 18.5952 66.9553 18.1386 65.4442C17.1991 62.3252 18.8869 56.0112 22.4923 55.4648C22.4923 55.4648 22.8543 59.7217 24.6664 60.4054Z" fill="#EBBC8F"/>
<mask id="mask3" mask-type="alpha" maskUnits="userSpaceOnUse" x="49" y="82" width="11" height="7">
<path fill-rule="evenodd" clip-rule="evenodd" d="M49.5729 82.0879H59.3155V88.0975H49.5729V82.0879Z" fill="white"/>
</mask>
<g mask="url(#mask3)">
<path fill-rule="evenodd" clip-rule="evenodd" d="M57.0272 88.0391C56.1304 88.2848 53.5338 87.6774 52.75 87.6658C51.9693 87.6523 49.5729 86.7466 49.5729 86.7466L49.6665 84.3014C49.6665 84.3014 49.8564 83.7748 51.5813 83.227C53.3035 82.6766 56.2234 81.7799 56.5204 82.1936C56.8059 82.5945 54.9963 83.7472 54.6038 83.9788L54.5659 83.9999C54.5428 84.0128 54.5525 84.0224 54.5897 84.0359C55.0207 84.1616 59.2267 84.177 59.312 84.694C59.3357 84.8511 59.2363 85.168 59.0612 85.5439C59.0484 85.5696 59.0368 85.5952 59.0214 85.6222C58.8887 85.8986 58.718 86.2027 58.5282 86.499C58.5128 86.5266 58.4967 86.551 58.4775 86.5773C58.2857 86.8704 58.074 87.1552 57.8636 87.3951C57.8399 87.4195 57.8187 87.4426 57.7975 87.4663C57.5275 87.762 57.2581 87.9776 57.0272 88.0391Z" fill="#EBBC8F"/>
</g>
<path fill-rule="evenodd" clip-rule="evenodd" d="M52.5381 85.5032C52.5375 85.5026 52.5375 85.502 52.5369 85.5013C52.5266 85.4808 52.5356 85.4558 52.5561 85.4455C53.4721 85.0029 54.5266 83.983 54.5369 83.9721C54.5536 83.9567 54.5799 83.9573 54.5953 83.9734C54.6107 83.9894 54.6107 84.0157 54.5946 84.0318C54.5837 84.0427 53.5196 85.0715 52.592 85.5199C52.5728 85.5302 52.549 85.5218 52.5381 85.5032Z" fill="#7362A5"/>
<path fill-rule="evenodd" clip-rule="evenodd" d="M59.0215 85.6216L55.0734 85.1584C55.0593 85.1546 55.049 85.1495 55.0426 85.1379C55.0375 85.1289 55.0375 85.1219 55.0381 85.1097C55.0413 85.0892 55.0599 85.0744 55.0837 85.0763L59.0613 85.5433C59.0485 85.569 59.0363 85.5946 59.0215 85.6216Z" fill="#7362A5"/>
<path fill-rule="evenodd" clip-rule="evenodd" d="M58.4773 86.5768L55.0661 86.0841C55.0539 86.0835 55.0417 86.0752 55.0353 86.0636C55.0321 86.0578 55.0302 86.0482 55.0295 86.0405C55.0347 86.0149 55.0526 86.0008 55.0764 86.002L58.528 86.4985C58.5133 86.5261 58.4966 86.5505 58.4773 86.5768Z" fill="#7362A5"/>
<path fill-rule="evenodd" clip-rule="evenodd" d="M57.7976 87.4676L54.7975 87.0398C54.7847 87.0359 54.7719 87.0276 54.7667 87.0193C54.7629 87.0103 54.7603 87 54.7629 86.9917C54.7661 86.9705 54.7866 86.9519 54.8084 86.9583L57.8636 87.3964C57.8393 87.4208 57.8187 87.4439 57.7976 87.4676Z" fill="#7362A5"/>
<mask id="mask4" mask-type="alpha" maskUnits="userSpaceOnUse" x="17" y="51" width="14" height="20">
<path fill-rule="evenodd" clip-rule="evenodd" d="M17.5004 51.7402H30.5008V70.4083H17.5004V51.7402Z" fill="#A2D2E1"/>
</mask>
<g mask="url(#mask4)">
<path fill-rule="evenodd" clip-rule="evenodd" d="M17.9224 70.501C17.2347 70.4214 16.9029 59.5544 17.9228 57.1611C18.5379 55.7185 19.2589 54.2778 20.3994 53.2014C21.5399 52.1244 23.1814 51.465 24.701 51.8518C26.4695 54.6562 27.4188 57.8597 28.4644 60.9777C28.9743 62.4973 30.501 66.6719 30.501 66.6719C28.9018 69.0587 20.3994 69.001 20.3994 69.001L17.9224 70.501Z" fill="#A0DCE0"/>
</g>
<path fill-rule="evenodd" clip-rule="evenodd" d="M146.258 122.79C147.175 118.463 148.379 113.225 149.415 108.803C149.578 108.116 149.735 107.446 149.887 106.805C150.898 102.529 151.655 99.4237 151.655 99.4237L138.999 86.9238C138.999 86.9238 137.271 103.512 136.721 108.341C136.1 113.779 135.498 120.591 135.739 124.97C135.966 129.114 137.271 131.275 138.909 131.76C141.494 132.528 144.912 129.131 146.258 122.79Z" fill="#7FB4C8"/>
<path fill-rule="evenodd" clip-rule="evenodd" d="M136.148 127.913C136.148 127.913 136.366 130.277 136.807 132.559C137.485 136.072 138.621 141.467 140.014 146.216C140.88 149.161 141.844 151.859 142.861 153.705L147.668 152.918C147.668 152.918 147.484 151.426 147.292 149.345C147.039 146.627 146.77 142.902 146.872 140.178C146.98 137.265 146.889 134.477 146.15 132.227C145.67 130.764 145.543 128.517 144.392 127.626C141.469 125.367 136.148 127.913 136.148 127.913Z" fill="#7FB4C8"/>
<path fill-rule="evenodd" clip-rule="evenodd" d="M143.116 153.274L143.123 153.463L143.195 155.335L143.345 159.225C144.764 159.9 146.173 159.49 147.816 158.903L147.477 153.164L143.116 153.274Z" fill="#EBBC8F"/>
<path fill-rule="evenodd" clip-rule="evenodd" d="M148.536 152.792C148.536 152.792 148.846 154.313 148.4 155.328L143.066 155.257C143.066 155.257 142.213 154.393 142.561 152.777L148.536 152.792Z" fill="#7FB4C8"/>
<path fill-rule="evenodd" clip-rule="evenodd" d="M133.04 163.718C133.055 163.806 133.072 163.901 133.092 164.001C133.105 164.064 133.118 164.129 133.133 164.191C133.192 164.452 133.268 164.693 133.351 164.777C133.497 164.924 135.854 164.99 137.287 165.017C137.923 165.029 138.377 165.033 138.377 165.033L143.704 165.145C144.476 165.18 147.208 165.201 148.446 165.209C148.795 165.212 149.083 164.942 149.106 164.596C149.111 164.519 149.115 164.439 149.121 164.353C149.143 164.014 149.169 163.615 149.191 163.228C149.227 162.613 149.255 162.028 149.256 161.768C149.254 161.106 148.72 159.819 148.72 159.819C148.72 159.819 149.786 158.783 149.082 158.387C148.378 157.991 148.056 158.265 148.056 158.265C148.056 158.265 146.337 159.134 145.479 159.01C145.128 158.959 144.778 158.779 144.47 158.537C144.023 158.188 143.662 157.713 143.503 157.319C143.238 156.65 142.101 157.106 142.006 157.717C141.965 157.964 141.839 158.113 141.635 158.26C141.422 158.416 141.124 158.573 140.759 158.848C140.701 158.892 140.641 158.94 140.578 158.989C140.492 159.061 140.403 159.138 140.31 159.225C140.148 159.375 139.961 159.521 139.753 159.664C139.711 159.694 139.667 159.723 139.623 159.752C139.398 159.899 139.098 159.945 138.85 160.082C137.981 160.559 137.092 161.066 136.521 161.371C136.454 161.407 136.379 161.445 136.298 161.484C135.512 161.856 134.182 162.315 133.575 162.752C133.159 163.051 133.004 163.507 133.04 163.718Z" fill="#281C27"/>
<path fill-rule="evenodd" clip-rule="evenodd" d="M133.133 164.189C133.192 164.45 133.268 164.691 133.352 164.775C133.563 164.987 138.377 165.032 138.377 165.032L143.704 165.144C144.476 165.179 147.209 165.2 148.446 165.208C148.794 165.21 149.083 164.942 149.105 164.594C149.111 164.518 149.116 164.438 149.122 164.352C144.083 164.55 138.7 164.455 133.133 164.189Z" fill="#815A7E"/>
<path fill-rule="evenodd" clip-rule="evenodd" d="M139.647 93.5435C142.536 99.3214 146.002 101.633 147.287 106.167C147.287 106.167 154.326 108.639 158.919 107.979C160.182 107.798 160.76 107.489 161.435 106.167C163.268 102.573 163.129 94.7098 160.262 89.5422C157.396 84.3745 155.323 82.4277 155.323 82.4277C150.821 82.4277 141.768 82.4277 141.768 82.4277C140.793 82.438 137.509 84.3478 139.647 93.5435Z" fill="#A0D1E0"/>
<path fill-rule="evenodd" clip-rule="evenodd" d="M153.944 127.719C154.461 126.14 155.033 124.437 155.624 122.7C158.166 115.233 161.081 107.115 161.698 105.399C161.776 105.183 161.817 105.068 161.817 105.068L147.288 106.168C147.288 106.168 145.875 111.788 144.713 118.021C144.712 118.023 144.712 118.024 144.712 118.024C144.221 120.658 143.774 123.401 143.499 125.874C143.385 126.89 143.3 127.86 143.253 128.759C142.691 139.442 150.646 137.787 153.944 127.719Z" fill="#A0D1E0"/>
<path fill-rule="evenodd" clip-rule="evenodd" d="M143.96 133.861C143.96 133.861 145.039 135.716 146.693 138.358C148.561 141.341 151.162 145.332 153.764 148.788C154.134 149.281 154.505 149.762 154.873 150.228C155.498 151.018 156.117 151.764 156.719 152.445C157.501 153.328 158.255 154.099 158.958 154.715L162.705 152.561C162.705 152.561 160.262 147.244 158.645 142.845C158.394 142.16 158.162 141.498 157.964 140.88C157.065 138.099 156.021 135.502 154.55 133.641C153.6 132.439 152.472 131.542 151.09 131.102C147.57 129.98 143.96 133.861 143.96 133.861Z" fill="#A0D1E0"/>
<path fill-rule="evenodd" clip-rule="evenodd" d="M158.69 155.422L159.056 156.283L160.288 159.182C161.698 159.878 163.26 159.109 164.91 158.545L164.071 156.427L163.144 154.09L158.69 155.422Z" fill="#EBBC8F"/>
<path fill-rule="evenodd" clip-rule="evenodd" d="M163.541 152.029C163.541 152.029 163.976 153.121 164.171 154.122L157.899 156.012C157.899 156.012 157.31 155.163 156.919 154.024L163.541 152.029Z" fill="#A0D1E0"/>
<mask id="mask5" mask-type="alpha" maskUnits="userSpaceOnUse" x="149" y="157" width="17" height="9">
<path fill-rule="evenodd" clip-rule="evenodd" d="M165.856 157.119H149.699V165.331H165.856V157.119Z" fill="white"/>
</mask>
<g mask="url(#mask5)">
<path fill-rule="evenodd" clip-rule="evenodd" d="M149.706 164.157C149.724 164.244 149.743 164.339 149.767 164.437C149.782 164.501 149.797 164.564 149.813 164.626C149.881 164.884 149.964 165.124 150.05 165.205C150.268 165.409 155.081 165.304 155.081 165.304L160.409 165.249C160.576 165.252 160.835 165.251 161.152 165.247C162.296 165.235 164.181 165.19 165.151 165.167C165.498 165.157 165.779 164.879 165.79 164.532C165.794 164.456 165.795 164.375 165.798 164.289C165.829 163.412 165.866 162.124 165.853 161.702C165.83 161.039 165.256 159.771 165.256 159.771C165.256 159.771 166.289 158.701 165.573 158.328C164.858 157.954 164.544 158.238 164.544 158.238C164.544 158.238 162.853 159.16 161.992 159.062C161.691 159.028 161.388 158.9 161.11 158.719V158.718C160.589 158.382 160.153 157.862 159.966 157.433C159.678 156.773 158.557 157.266 158.48 157.878C158.448 158.127 158.325 158.279 158.126 158.433C157.917 158.596 157.624 158.761 157.269 159.048C157.212 159.093 157.153 159.142 157.093 159.195C157.009 159.269 156.923 159.349 156.832 159.438C156.674 159.594 156.491 159.746 156.289 159.895C156.248 159.926 156.204 159.956 156.162 159.987C155.941 160.141 155.644 160.196 155.399 160.341C154.925 160.621 154.446 160.909 154.017 161.167C153.885 161.246 153.758 161.322 153.637 161.393C153.442 161.509 153.266 161.613 153.111 161.702C152.397 162.115 150.864 162.671 150.209 163.173C149.803 163.486 149.663 163.946 149.706 164.157Z" fill="#281C27"/>
</g>
<path fill-rule="evenodd" clip-rule="evenodd" d="M149.814 164.626C149.881 164.884 149.964 165.124 150.051 165.205C150.268 165.409 155.082 165.304 155.082 165.304L160.409 165.25C161.182 165.261 163.914 165.196 165.151 165.166C165.499 165.158 165.78 164.88 165.791 164.532C165.794 164.456 165.796 164.375 165.8 164.289C160.769 164.644 155.386 164.718 149.814 164.626Z" fill="#815A7E"/>
<path fill-rule="evenodd" clip-rule="evenodd" d="M145.391 47.2951L145.522 52.2717C145.565 54.0193 146.665 54.9278 148.384 54.8726C149.853 54.8253 151.207 54.0225 151.342 52.5599L150.759 44.7383L145.391 47.2951Z" fill="#EBBC8F"/>
<path fill-rule="evenodd" clip-rule="evenodd" d="M145.472 50.3711C148.955 50.3747 151.166 45.1797 151.166 45.1797L145.368 46.482L145.472 50.3711Z" fill="#00023C" fill-opacity="0.18"/>
<path fill-rule="evenodd" clip-rule="evenodd" d="M150.195 45.0047C150.272 45.0579 150.345 45.1221 150.415 45.1974C151.255 46.1111 153.764 47.7393 154.123 45.4122C154.219 44.7918 153.75 43.9884 153.615 43.381C153.416 42.4939 153.359 41.6023 153.638 40.7243C153.955 39.7275 154.52 38.8138 154.739 37.7911C155.08 36.2084 154.439 34.4855 153.24 33.4206C152.463 32.7321 151.518 32.5822 150.549 32.3388C149.602 32.1 149.05 31.5666 148.172 31.2272C146.454 30.562 144.33 30.9326 142.989 32.2084C142.518 32.6574 142.138 33.198 141.638 33.6133C140.917 34.2136 139.958 34.5205 139.023 34.4511C138.522 34.4147 138.008 34.2759 137.526 34.418C137.043 34.5595 136.65 35.1571 136.942 35.5666C137.082 35.7652 137.366 35.9235 137.311 36.1604C137.249 36.4355 136.853 36.3946 136.579 36.4608C136.073 36.5822 135.881 37.2603 136.085 37.7392C136.487 38.6841 137.755 39.1364 138.317 39.9917C138.99 41.0157 139.852 41.7243 140.792 42.5303C141.833 43.4219 143.121 43.9644 144.397 44.4647C145.167 44.7671 145.957 45.0618 146.784 45.1182C147.835 45.1902 149.271 44.3629 150.195 45.0047Z" fill="#2A0952"/>
<path fill-rule="evenodd" clip-rule="evenodd" d="M145.646 49.862C149.128 49.8653 151.339 45.0762 151.339 45.0762L145.541 46.276L145.646 49.862Z" fill="#8679B6"/>
<path fill-rule="evenodd" clip-rule="evenodd" d="M146.716 47.5322C143.809 47.5412 141.41 45.2525 141.323 42.8793L141.152 37.2797C141.043 34.305 142.94 31.7813 145.908 31.5743C148.948 31.3627 152.489 33.6184 152.701 36.6574L152.79 41.1635C152.858 44.6477 150.192 47.2901 146.716 47.5322Z" fill="#EBBC8F"/>
<path fill-rule="evenodd" clip-rule="evenodd" d="M155.502 40.6198C155.589 41.8664 154.649 42.9463 153.403 43.0332C152.157 43.1202 151.077 42.1799 150.99 40.9339C150.903 39.688 151.843 38.6075 153.089 38.5212C154.335 38.4342 155.415 39.3739 155.502 40.6198Z" fill="#EBBC8F"/>
<path fill-rule="evenodd" clip-rule="evenodd" d="M152.504 41.5022C152.504 41.5022 152.39 39.8662 153.973 40.0155L152.504 41.5022Z" fill="#00023C" fill-opacity="0.18"/>
<path fill-rule="evenodd" clip-rule="evenodd" d="M141.209 33.2966C140.724 33.8644 140.271 34.4686 139.824 35.0364C139.553 35.379 139.281 35.7399 139.181 36.1649C139.08 36.5893 139.2 37.0981 139.572 37.3258C139.908 37.5309 140.354 37.4543 140.694 37.2564C141.034 37.0572 141.298 36.7548 141.583 36.4829C142.133 35.9585 142.779 35.5348 143.48 35.2415C143.253 35.5588 143.463 36.0377 143.806 36.2207C144.151 36.4031 144.567 36.368 144.95 36.2992C145.965 36.1175 146.941 35.7347 147.809 35.1785C147.915 35.6049 148.029 36.0474 148.314 36.3803C148.6 36.7132 149.113 36.8962 149.49 36.6724C149.683 36.5575 149.81 36.3589 149.918 36.1617C150.647 37.7165 149.895 39.4751 150.017 41.1442L150.993 41.002C151.279 40.1513 152.109 39.6445 152.488 38.8463C152.887 38.0059 152.861 36.9728 152.707 36.0766C152.471 34.7093 151.908 33.2986 150.749 32.5361C150.258 32.2136 149.691 32.028 149.123 31.8768C147.786 31.5237 146.402 31.3466 145.02 31.3537C144.099 31.3583 143.112 31.4699 142.412 32.0675C141.983 32.4335 141.586 32.8541 141.209 33.2966Z" fill="#2B2D4D"/>
<path fill-rule="evenodd" clip-rule="evenodd" d="M145.107 43.7583L147.981 42.8984C147.981 42.8984 148.14 44.9004 146.986 45.1944C145.981 45.4507 145.107 43.7583 145.107 43.7583Z" fill="#2A0952"/>
<path fill-rule="evenodd" clip-rule="evenodd" d="M145.64 41.5864C145.594 41.6812 145.545 41.774 145.499 41.8693C145.485 41.8985 145.471 41.929 145.458 41.9595C145.454 41.968 145.428 42.0277 145.449 41.9803C145.443 41.9939 145.438 42.0069 145.432 42.0205C145.408 42.0822 145.385 42.1438 145.369 42.2081C145.365 42.2217 145.362 42.236 145.359 42.2496C145.358 42.2561 145.349 42.3067 145.355 42.271C145.36 42.2353 145.354 42.2814 145.354 42.2879C145.354 42.2996 145.356 42.3113 145.354 42.323C145.353 42.3333 145.341 42.273 145.354 42.3119C145.367 42.3528 145.341 42.2892 145.347 42.3015C145.367 42.3359 145.302 42.2587 145.344 42.2989C145.36 42.3132 145.374 42.3288 145.39 42.3424C145.399 42.3509 145.399 42.3502 145.386 42.3405C145.396 42.3476 145.406 42.3547 145.415 42.3606C145.433 42.3723 145.451 42.3833 145.47 42.3924C145.476 42.3956 145.53 42.4216 145.499 42.408C145.518 42.4157 145.538 42.4235 145.559 42.43C145.643 42.4592 145.731 42.4774 145.818 42.493C145.915 42.5118 145.979 42.6344 145.95 42.7259C145.916 42.8298 145.822 42.8765 145.718 42.8577C145.506 42.8181 145.297 42.7564 145.129 42.615C145.063 42.5585 145.007 42.491 144.988 42.4047C144.97 42.3249 144.977 42.247 144.992 42.1672C145.041 41.894 145.194 41.6429 145.314 41.3963C145.358 41.3067 145.491 41.2756 145.573 41.3288C145.664 41.3872 145.687 41.4917 145.64 41.5864Z" fill="#00023C" fill-opacity="0.18"/>
<path fill-rule="evenodd" clip-rule="evenodd" d="M147.315 40.065C147.315 40.065 147.149 40.7983 147.692 40.6192C148.235 40.4401 150.123 39.8671 150.123 39.8671C150.123 39.8671 149.161 38.3239 147.315 40.065Z" fill="#EFF2F9"/>
<path fill-rule="evenodd" clip-rule="evenodd" d="M147.116 39.8597C147.124 39.8402 147.13 39.8195 147.139 39.7993C147.642 38.7059 149.14 38.6657 150.057 39.2056C150.129 39.2484 150.212 39.2925 150.293 39.2711C150.35 39.2555 150.394 39.2114 150.435 39.1686C150.573 39.0226 150.755 38.7176 150.994 38.7877C151.118 38.824 151.136 38.8714 151.157 38.9609C151.192 39.1128 150.867 39.3048 150.779 39.386C150.601 39.5501 150.43 39.7124 150.219 39.8441C150.19 39.8616 150.16 39.8792 150.127 39.8843C150.07 39.8921 150.016 39.8629 149.971 39.8292C149.72 39.6436 149.574 39.4249 149.26 39.3152C149.095 39.2575 148.864 39.2185 148.703 39.3036C148.759 39.5904 149.025 39.9135 149.169 40.1738L147.525 40.6832C147.525 40.6832 146.888 40.3756 147.116 39.8597Z" fill="#2A0952"/>
<path fill-rule="evenodd" clip-rule="evenodd" d="M142.304 41.1866L144.943 40.9271C144.943 40.9271 143.927 39.5721 142.904 39.9783C141.882 40.3839 142.304 41.1866 142.304 41.1866Z" fill="#EFF2F9"/>
<path fill-rule="evenodd" clip-rule="evenodd" d="M141.263 40.0192C141.373 39.9608 141.476 39.9991 141.568 40.0685C141.719 40.184 141.912 40.4092 142.092 40.2703C142.258 40.1412 142.346 39.9712 142.549 39.8667C142.909 39.6811 143.345 39.6149 143.746 39.6461C144.313 39.6889 144.916 39.9498 145.164 40.4929C145.212 40.5993 145.224 40.7285 145.165 40.8291C145.106 40.929 144.964 40.9816 144.865 40.9206C144.822 40.894 144.792 40.8505 144.764 40.8083C144.475 40.3819 143.845 39.8628 143.289 40.1042C143.372 40.4196 143.642 40.7479 143.795 41.0406L142.304 41.1879C142.304 41.1879 142.045 41.0211 142.022 40.7551C141.99 40.7376 141.958 40.7226 141.925 40.7155C141.767 40.5254 141.498 40.5331 141.321 40.3761C141.263 40.3197 141.205 40.2632 141.148 40.2061C141.15 40.1211 141.157 40.0757 141.263 40.0192Z" fill="#2A0952"/>
<path fill-rule="evenodd" clip-rule="evenodd" d="M148.104 38.4053C147.621 38.3404 147.626 37.6266 148.108 37.5539C148.527 37.4916 149.062 37.4922 149.377 37.8037C149.956 38.3735 148.636 38.4643 148.119 38.4072C148.114 38.4066 148.109 38.4066 148.104 38.4053Z" fill="#2A0952"/>
<path fill-rule="evenodd" clip-rule="evenodd" d="M143.219 39.0196C143.597 38.8658 143.442 38.2876 143.036 38.3304C142.683 38.368 142.25 38.4816 142.059 38.8002C141.711 39.3843 142.8 39.1792 143.207 39.0247C143.211 39.0228 143.216 39.0215 143.219 39.0196Z" fill="#2A0952"/>
<path fill-rule="evenodd" clip-rule="evenodd" d="M136.615 59.8359L134.177 65.9878L140.411 67.2974L142.453 60.4842L136.615 59.8359Z" fill="#EBBC8F"/>
<path fill-rule="evenodd" clip-rule="evenodd" d="M115.323 65.7847C116.112 66.2967 118.802 66.5069 119.561 66.7366C120.317 66.9638 122.906 66.8256 122.906 66.8256L123.565 64.4394C123.565 64.4394 123.544 63.8736 122.049 62.8165C120.557 61.7574 118.017 59.9975 117.604 60.3051C117.206 60.6042 118.597 62.2701 118.905 62.614L118.934 62.6458C118.953 62.6653 118.94 62.6717 118.9 62.673C118.446 62.662 114.388 61.3875 114.147 61.8593C114.075 62.004 114.073 62.3395 114.127 62.7555C114.131 62.784 114.135 62.8126 114.141 62.8437C114.185 63.15 114.256 63.4959 114.348 63.8398C114.354 63.871 114.363 63.8995 114.373 63.9307C114.469 64.272 114.584 64.612 114.714 64.9073C114.729 64.9385 114.742 64.9677 114.756 64.9962C114.925 65.3648 115.12 65.6549 115.323 65.7847Z" fill="#EBBC8F"/>
<path fill-rule="evenodd" clip-rule="evenodd" d="M120.428 64.7163C120.429 64.7156 120.429 64.715 120.43 64.7143C120.445 64.6981 120.444 64.6715 120.428 64.6553C119.681 63.9473 118.978 62.6403 118.971 62.6274C118.96 62.6073 118.934 62.5995 118.914 62.6105C118.894 62.6209 118.886 62.6468 118.897 62.667C118.904 62.6799 119.614 63.9992 120.37 64.7163C120.387 64.7312 120.412 64.7306 120.428 64.7163Z" fill="#B3B2E6"/>
<path fill-rule="evenodd" clip-rule="evenodd" d="M114.14 62.8422L118.089 63.6073C118.103 63.6073 118.115 63.6053 118.125 63.5962C118.132 63.5891 118.135 63.5826 118.137 63.5703C118.14 63.5495 118.127 63.53 118.103 63.5248L114.126 62.7539C114.13 62.7825 114.134 62.811 114.14 62.8422Z" fill="#B3B2E6"/>
<path fill-rule="evenodd" clip-rule="evenodd" d="M114.373 63.9287L117.813 64.5011C117.824 64.5037 117.839 64.4992 117.848 64.4901C117.853 64.4855 117.858 64.4764 117.861 64.4693C117.864 64.4433 117.85 64.4245 117.827 64.4187L114.347 63.8379C114.354 63.869 114.362 63.8976 114.373 63.9287Z" fill="#B3B2E6"/>
<path fill-rule="evenodd" clip-rule="evenodd" d="M114.756 64.9952L117.779 65.5033C117.793 65.5039 117.807 65.4994 117.815 65.4929C117.822 65.4857 117.827 65.4767 117.827 65.4676C117.83 65.4455 117.817 65.4215 117.794 65.4209L114.714 64.9062C114.73 64.9374 114.743 64.9666 114.756 64.9952Z" fill="#B3B2E6"/>
<path fill-rule="evenodd" clip-rule="evenodd" d="M140.412 67.2981C140.404 67.2962 134.179 65.9886 134.179 65.9886L123.204 63.6836L121.968 66.866C125.245 68.376 129.332 71.0613 132.61 72.5707C134.532 73.4572 136.175 74.3352 137.825 72.4643C138.206 72.0334 140.404 67.2962 140.412 67.2981Z" fill="#EBBC8F"/>
<path fill-rule="evenodd" clip-rule="evenodd" d="M146.096 54.3237C146.096 54.3237 144.566 64.1758 141.683 72.0577L133.266 62.9688L138.691 53.5664L146.096 54.3237Z" fill="#2D3474"/>
<path fill-rule="evenodd" clip-rule="evenodd" d="M152.412 50.1324C152.412 50.1324 158.51 50.7236 161.589 56.2726C159.577 62.2653 158.15 67.4644 157.308 71.8697C156.467 76.275 156.467 80.4125 157.308 84.2821C153.081 84.5886 149.734 84.7229 147.266 84.6849C144.798 84.6469 142.331 84.4582 139.866 84.1189L138.18 56.0766C137.862 54.8878 138.337 53.6289 139.36 52.9449L142.955 50.9637L145.498 49.6275H147.215L149.465 49.4082L152.412 50.1324Z" fill="#424CAB"/>
<path fill-rule="evenodd" clip-rule="evenodd" d="M150.438 49.332L154.22 50.4891C154.22 50.4891 151.598 54.3632 146.903 53.9712C142.67 53.6176 142.454 51.2399 142.454 51.2399L145.499 49.6273L150.438 49.332Z" fill="#EBBC8F"/>
<path fill-rule="evenodd" clip-rule="evenodd" d="M165.016 63.8613L180.117 82.9315L177.447 84.9334L159.097 68.4428L165.016 63.8613Z" fill="#EBBC8F"/>
<path fill-rule="evenodd" clip-rule="evenodd" d="M159.943 54L168.145 62.7723L158.511 71.8703L153.818 65.5361L159.943 54Z" fill="#424CAB"/>
<path fill-rule="evenodd" clip-rule="evenodd" d="M111.485 58.675L108.923 62.2247C108.781 62.4213 108.847 62.6906 109.069 62.8256L118.654 68.6056C118.878 68.7399 119.174 68.6893 119.316 68.492L121.878 64.9424C122.02 64.7451 121.954 64.4758 121.731 64.3408L112.147 58.5614C111.923 58.4271 111.627 58.4777 111.485 58.675Z" fill="#5C616E"/>
<path fill-rule="evenodd" clip-rule="evenodd" d="M111.979 57.992L109.417 61.541C109.275 61.7383 109.341 62.0076 109.563 62.1426L119.148 67.922C119.372 68.057 119.669 68.0057 119.811 67.8084L122.372 64.2588C122.514 64.0621 122.449 63.7922 122.225 63.6579L112.641 57.8778C112.418 57.7435 112.122 57.7941 111.979 57.992Z" fill="#A1A6B2"/>
<circle cx="120.001" cy="65.5" r="0.5" fill="#EFF2F9"/>
<path fill-rule="evenodd" clip-rule="evenodd" d="M112.881 58.623L110.631 61.7418L118.442 66.4518L120.692 63.3336L112.881 58.623Z" fill="#EBEBEB"/>
<path fill-rule="evenodd" clip-rule="evenodd" d="M110.631 61.7418L120.692 63.3336L112.881 58.623L110.631 61.7418Z" fill="#EFF2F9"/>
<path fill-rule="evenodd" clip-rule="evenodd" d="M184.533 87.7726C183.594 87.8265 181.153 86.6772 180.38 86.5001C179.61 86.3229 177.431 84.9199 177.431 84.9199L178.04 82.5202C178.04 82.5202 178.339 82.0387 180.161 81.8621C181.982 81.6811 185.06 81.4105 185.266 81.8829C185.464 82.3391 183.431 83.0977 182.993 83.2437L182.951 83.2567C182.926 83.2651 182.933 83.2762 182.967 83.2976C183.367 83.513 187.524 84.4163 187.5 84.9465C187.49 85.1068 187.326 85.3995 187.073 85.7337C187.055 85.757 187.037 85.7797 187.017 85.8038C186.827 86.0484 186.594 86.3132 186.343 86.5662C186.322 86.5903 186.301 86.611 186.276 86.6324C186.025 86.8823 185.755 87.1198 185.496 87.3125C185.468 87.332 185.442 87.3508 185.416 87.369C185.087 87.6045 184.775 87.7603 184.533 87.7726Z" fill="#EBBC8F"/>
</svg>
