<svg width="181" height="180" viewBox="0 0 181 180" fill="none" xmlns="http://www.w3.org/2000/svg">
<circle cx="90.5" cy="90" r="90" fill="#F0F5EF"/>
<mask id="mask0" mask-type="alpha" maskUnits="userSpaceOnUse" x="0" y="0" width="181" height="180">
<circle cx="90.5" cy="90" r="90" fill="white"/>
</mask>
<g mask="url(#mask0)">
<path fill-rule="evenodd" clip-rule="evenodd" d="M117.265 117.455C117.265 117.455 111.491 130.17 104.728 169.408C97.9645 208.647 97.056 235.014 97.056 235.014H117.861L136.002 125.479L131.366 121.208L121.637 117.455H117.265Z" fill="#596818"/>
<mask id="mask1" mask-type="alpha" maskUnits="userSpaceOnUse" x="119" y="109" width="33" height="127">
<path fill-rule="evenodd" clip-rule="evenodd" d="M151.026 109.119H119.093V235.013H151.026V109.119Z" fill="white"/>
</mask>
<g mask="url(#mask1)">
<path fill-rule="evenodd" clip-rule="evenodd" d="M139.762 117.455C139.762 117.455 150.394 130.531 150.91 149.477C151.505 171.334 149.641 235.014 149.641 235.014L129.719 234.508L119.093 117.455H139.762Z" fill="#83952F"/>
</g>
<path fill-rule="evenodd" clip-rule="evenodd" d="M133.662 35.1126C134.911 34.6207 136.349 34.7682 137.58 35.3034C138.812 35.8365 139.856 36.7285 140.769 37.7133C141.503 38.5074 142.174 39.3839 142.571 40.3893C142.968 41.3958 143.072 42.5487 142.682 43.5572C142.432 44.2038 141.996 44.7617 141.506 45.2526C140.807 45.9538 139.869 46.5663 138.891 46.4024C138.361 46.3137 137.895 46.0053 137.462 45.6877C134.965 43.8563 127.988 37.3462 133.662 35.1126Z" fill="#2B2D4D"/>
<mask id="mask2" mask-type="alpha" maskUnits="userSpaceOnUse" x="100" y="38" width="69" height="55">
<path fill-rule="evenodd" clip-rule="evenodd" d="M168.81 38.8496H100.711V92.2286H168.81V38.8496Z" fill="white"/>
</mask>
<g mask="url(#mask2)">
<path fill-rule="evenodd" clip-rule="evenodd" d="M100.711 90.9156L101.558 86.2432C102.411 81.5697 104.54 81.48 105.936 78.4874C107.333 75.4958 104.856 73.3168 107.55 67.0769C110.244 60.837 112.92 62.4643 116.562 59.778C120.204 57.0844 120.883 50.1092 120.883 50.1092L121.864 51.4509C119.428 47.5157 117.873 44.9377 117.873 44.9377C117.873 44.9377 119.455 40.3446 125.433 39.2072C131.413 38.078 134.638 39.7486 136.44 42.4586C138.243 45.1738 138.593 49.4647 140.188 50.9734C141.784 52.481 145.032 50.5444 148.131 54.5837C151.233 58.6281 150.1 62.5251 153.66 63.841C157.221 65.1568 160.673 63.7822 164.7 70.0437C168.726 76.3053 168.81 77.32 168.81 77.32C168.81 77.32 167.862 78.1306 166.393 79.3629C164.65 77.4314 160.521 73.0033 157.712 71.2008C157.712 71.2008 164.007 81.3408 164.006 81.3408C141.938 95.5602 106.376 91.7705 106.376 91.7705L106.977 82.4576L104.902 91.5498L100.711 90.9156Z" fill="#2B2D4D"/>
</g>
<path fill-rule="evenodd" clip-rule="evenodd" d="M129.82 38.8788C129.82 38.8788 133.544 37.7032 136.945 41.9271C140.346 46.15 139.262 49.4973 141.586 51.5907C143.909 53.6841 145.737 54.3935 145.737 54.3935L140.114 53.0365L137.171 48.6001L129.82 38.8788Z" fill="#2B2D4D"/>
<path fill-rule="evenodd" clip-rule="evenodd" d="M140.016 46.1649C140.016 46.1649 137.338 39.8476 131.727 38.1719L131.353 38.7916C131.353 38.7916 136.624 41.1923 139.188 46.4546L140.016 46.1649Z" fill="white"/>
<path fill-rule="evenodd" clip-rule="evenodd" d="M124.329 64.5747L124.537 72.4831C124.605 75.2602 126.352 76.7039 129.085 76.6163C131.418 76.541 133.57 75.2654 133.785 72.941L132.859 60.5117L124.329 64.5747Z" fill="#EBBC8F"/>
<path fill-rule="evenodd" clip-rule="evenodd" d="M124.457 68.4314C129.992 68.437 133.505 61.2129 133.505 61.2129L124.291 63.2823L124.457 68.4314Z" fill="#00023C" fill-opacity="0.18"/>
<path fill-rule="evenodd" clip-rule="evenodd" d="M127.626 64.76C123.02 65.1003 118.959 61.7437 118.554 57.9922L117.653 49.135C117.144 44.4316 119.867 40.217 124.55 39.556H124.551C129.344 38.8775 135.211 42.0536 135.889 46.8488L136.536 53.9807C137.038 59.4967 133.11 63.9846 127.626 64.76Z" fill="#EBBC8F"/>
<path fill-rule="evenodd" clip-rule="evenodd" d="M140.849 53.8432C141.127 55.8087 139.759 57.6267 137.793 57.9041C135.828 58.1825 134.01 56.8141 133.732 54.8496C133.454 52.8831 134.822 51.0661 136.788 50.7877C138.752 50.5103 140.571 51.8787 140.849 53.8432Z" fill="#EBBC8F"/>
<path fill-rule="evenodd" clip-rule="evenodd" d="M136.196 55.58C136.196 55.58 135.831 52.9998 138.356 53.0576L136.196 55.58Z" fill="#00023C" fill-opacity="0.18"/>
<path fill-rule="evenodd" clip-rule="evenodd" d="M136.645 50.6083C136.645 50.6083 135.795 50.3237 134.164 50.3732C134.158 50.3753 134.149 50.3722 134.143 50.3732L131.719 45.3419C131.719 45.3419 133.15 49.0501 133.582 50.3711C132.842 50.3464 132.004 50.2721 131.076 50.2237C130.332 48.4799 128.972 45.0676 128.793 43.1815C128.8 43.7311 128.882 47.6312 129.338 50.1979C128.842 50.2133 128.331 50.2494 127.796 50.3165C126.63 50.4608 124.302 50.9239 122.118 51.3838C121.689 49.8339 120.904 46.7196 120.994 44.9015C120.918 45.3594 120.325 49.0037 120.569 51.6983C118.605 52.1139 117.055 52.4645 117.055 52.4645C117.055 52.4645 116.016 48.1447 118.336 43.4547C120.653 38.7586 127.587 38.8534 127.587 38.8534C127.587 38.8534 130.296 38.4162 133.073 40.8169C135.857 43.2217 136.645 50.6083 136.645 50.6083Z" fill="#2B2D4D"/>
<path fill-rule="evenodd" clip-rule="evenodd" d="M124.979 58.9179L129.073 57.6934C129.073 57.6934 129.298 60.5445 127.655 60.9632C126.224 61.3283 124.979 58.9179 124.979 58.9179Z" fill="#2B2D4D"/>
<path fill-rule="evenodd" clip-rule="evenodd" d="M125.739 55.8278C125.673 55.9628 125.603 56.0949 125.538 56.2308C125.518 56.2724 125.499 56.3158 125.479 56.3593C125.474 56.3713 125.438 56.4563 125.466 56.3888C125.458 56.4082 125.451 56.4267 125.442 56.4461C125.408 56.5339 125.376 56.6217 125.354 56.7132C125.348 56.7326 125.343 56.753 125.339 56.7724C125.337 56.7816 125.325 56.8537 125.333 56.8029C125.34 56.7521 125.332 56.8177 125.332 56.8269C125.331 56.8436 125.334 56.8602 125.332 56.8768C125.33 56.8916 125.313 56.8057 125.331 56.8611C125.35 56.9193 125.313 56.8288 125.321 56.8463C125.35 56.8953 125.257 56.7853 125.317 56.8426C125.34 56.863 125.36 56.8851 125.382 56.9045C125.396 56.9166 125.395 56.9156 125.378 56.9018C125.391 56.9119 125.405 56.9221 125.419 56.9304C125.444 56.9471 125.47 56.9628 125.497 56.9757C125.505 56.9803 125.583 57.0173 125.537 56.9979C125.565 57.009 125.594 57.0201 125.623 57.0293C125.744 57.0709 125.868 57.0968 125.992 57.119C126.131 57.1458 126.222 57.3204 126.181 57.4508C126.133 57.5986 125.998 57.6652 125.85 57.6384C125.549 57.582 125.25 57.4942 125.012 57.2927C124.917 57.2123 124.838 57.1162 124.81 56.9933C124.784 56.8796 124.795 56.7687 124.816 56.655C124.886 56.2659 125.104 55.9083 125.275 55.5571C125.337 55.4295 125.527 55.3851 125.643 55.4609C125.773 55.5441 125.805 55.6929 125.739 55.8278Z" fill="#00023C" fill-opacity="0.18"/>
<path fill-rule="evenodd" clip-rule="evenodd" d="M128.123 53.6646C128.123 53.6646 127.886 54.709 128.659 54.4539C129.433 54.1988 132.121 53.3827 132.121 53.3827C132.121 53.3827 130.752 51.1849 128.123 53.6646Z" fill="#EFF2F9"/>
<path fill-rule="evenodd" clip-rule="evenodd" d="M127.84 53.3696C127.851 53.3419 127.86 53.3123 127.873 53.2836C128.589 51.7264 130.722 51.6691 132.029 52.438C132.131 52.499 132.25 52.5618 132.365 52.5313C132.446 52.5092 132.508 52.4463 132.567 52.3853C132.763 52.1774 133.023 51.743 133.363 51.8428C133.54 51.8946 133.566 51.962 133.595 52.0896C133.645 52.3058 133.182 52.5794 133.057 52.6949C132.803 52.9288 132.559 53.1598 132.26 53.3474C132.218 53.3724 132.175 53.3973 132.128 53.4047C132.047 53.4158 131.97 53.3742 131.906 53.3262C131.548 53.0618 131.34 52.7504 130.893 52.5942C130.659 52.5119 130.329 52.4565 130.1 52.5776C130.18 52.9861 130.558 53.4463 130.763 53.8169L128.422 54.5424C128.422 54.5424 127.516 54.1043 127.84 53.3696Z" fill="#2B2D4D"/>
<path fill-rule="evenodd" clip-rule="evenodd" d="M120.986 55.2588L124.745 54.8891C124.745 54.8891 123.297 52.9593 121.842 53.5379C120.386 54.1155 120.986 55.2588 120.986 55.2588Z" fill="#EFF2F9"/>
<path fill-rule="evenodd" clip-rule="evenodd" d="M119.504 53.5947C119.66 53.5115 119.807 53.566 119.938 53.6649C120.154 53.8294 120.428 54.1501 120.684 53.9523C120.921 53.7684 121.047 53.5263 121.336 53.3775C121.848 53.1132 122.469 53.0189 123.04 53.0633C123.847 53.1243 124.707 53.4958 125.06 54.2694C125.128 54.4209 125.145 54.6048 125.061 54.7481C124.976 54.8904 124.775 54.9653 124.634 54.8784C124.573 54.8405 124.53 54.7786 124.49 54.7185C124.078 54.1113 123.181 53.3719 122.389 53.7157C122.508 54.1649 122.892 54.6326 123.11 55.0494L120.987 55.2592C120.987 55.2592 120.618 55.0217 120.585 54.6427C120.539 54.6178 120.494 54.5965 120.447 54.5864C120.221 54.3156 119.838 54.3267 119.586 54.103C119.504 54.0226 119.422 53.9422 119.34 53.8608C119.342 53.7398 119.354 53.6751 119.504 53.5947Z" fill="#2B2D4D"/>
<path fill-rule="evenodd" clip-rule="evenodd" d="M129.246 51.2978C128.559 51.2054 128.566 50.1887 129.253 50.0852C129.85 49.9965 130.611 49.9974 131.06 50.441C131.884 51.2525 130.004 51.3819 129.267 51.3006C129.261 51.2996 129.254 51.2996 129.246 51.2978Z" fill="#2B2D4D"/>
<path fill-rule="evenodd" clip-rule="evenodd" d="M122.29 52.1722C122.828 51.9532 122.607 51.1297 122.029 51.1907C121.526 51.2443 120.909 51.4061 120.638 51.8598C120.142 52.6916 121.693 52.3996 122.272 52.1796C122.278 52.1769 122.284 52.175 122.29 52.1722Z" fill="#2B2D4D"/>
<path fill-rule="evenodd" clip-rule="evenodd" d="M168.728 52.2363L180.886 41.9746L184.319 45.2797L172.016 58.9175L168.728 52.2363Z" fill="#EBBC8F"/>
<path fill-rule="evenodd" clip-rule="evenodd" d="M142.787 121.752C141.773 121.947 135.653 122.709 134.692 122.822C125.277 123.934 114.875 122.048 114.875 122.048C114.951 119.856 110.936 94.5789 111.93 88.4576C112.981 81.9826 121.353 68.5664 121.353 68.5664L125.961 68.7262C131.608 70.5886 136.806 68.6386 136.806 68.6386L141.098 68.7891C143.991 72.1796 145.449 74.7276 145.471 76.4331C145.596 85.9198 141.356 97.0387 141.098 103.913C140.936 108.25 141.499 114.197 142.787 121.752Z" fill="#664126"/>
<path fill-rule="evenodd" clip-rule="evenodd" d="M123.918 68.6348C123.918 68.6348 117.573 79.0222 120.081 81.4889C122.687 84.0505 127.474 82.1571 130.795 79.0594C134.114 75.9626 136.805 68.6348 136.805 68.6348H123.918Z" fill="#EBBC8F"/>
<path fill-rule="evenodd" clip-rule="evenodd" d="M90.5328 35.6792C90.5328 35.6792 91.7434 53.0027 96.915 60.6306C102.088 68.2585 113.533 83.3607 113.533 83.3607L121.354 68.5689C121.354 68.5689 109.637 59.6303 107.953 55.9427C106.268 52.2571 96.7407 32.4824 96.7407 32.4824L90.5328 35.6792Z" fill="#83952F"/>
<path fill-rule="evenodd" clip-rule="evenodd" d="M91.7564 35.0501L89.8043 25.8165L94.1519 23.9902L96.7402 32.4834L91.7564 35.0501Z" fill="#EBBC8F"/>
<path fill-rule="evenodd" clip-rule="evenodd" d="M85.5443 13.3644C85.3267 15.1659 87.2417 20.0044 87.4871 21.5131C87.7357 23.0156 88.4255 24.2809 89.3 25.374C90.1776 26.4753 90.1683 27.3838 90.1683 27.3838L94.8614 26.5021C94.8614 26.5021 95.8245 25.9865 96.3886 22.501C96.9578 19.0186 97.854 13.1272 96.9713 12.6725C96.1153 12.2363 94.4087 16.058 94.0735 16.8819L94.0436 16.9603C94.0251 17.0087 94.0034 16.9943 93.9673 16.9252C93.6012 16.1301 92.37 8.01651 91.347 8C91.0376 7.99897 90.4539 8.27947 89.7785 8.72702C89.7331 8.75692 89.6867 8.78889 89.6383 8.82498C89.1443 9.16116 88.606 9.57674 88.0883 10.0284C88.0399 10.0645 87.9966 10.1037 87.9522 10.1491C87.4407 10.6018 86.9499 11.0916 86.5487 11.567C86.5075 11.6196 86.4683 11.667 86.4291 11.7134C85.9362 12.3198 85.5969 12.9014 85.5443 13.3644Z" fill="#EBBC8F"/>
<path fill-rule="evenodd" clip-rule="evenodd" d="M91.722 21.3031C91.723 21.3042 91.724 21.3042 91.7261 21.3052C91.7684 21.3186 91.8137 21.2939 91.8282 21.2516C92.4201 19.3572 94.0886 17.0308 94.1051 17.0081C94.1309 16.972 94.1226 16.9215 94.0866 16.8967C94.0525 16.8699 94.001 16.8782 93.9741 16.9132C93.9566 16.938 92.2747 19.285 91.6735 21.2031C91.6601 21.2444 91.6817 21.2877 91.722 21.3031Z" fill="#F0F5EF"/>
<path fill-rule="evenodd" clip-rule="evenodd" d="M89.6379 8.82453L91.6601 16.3132C91.6715 16.338 91.6849 16.3576 91.7086 16.3658C91.7272 16.3731 91.7416 16.372 91.7643 16.3669C91.8035 16.3545 91.8262 16.3143 91.8148 16.2689L89.7792 8.72656C89.7328 8.7575 89.6864 8.78844 89.6379 8.82453Z" fill="#F0F5EF"/>
<path fill-rule="evenodd" clip-rule="evenodd" d="M87.952 10.1499L89.8762 16.593C89.8814 16.6167 89.901 16.6373 89.9247 16.6466C89.9371 16.6508 89.9577 16.6518 89.9711 16.6508C90.0196 16.6343 90.0412 16.594 90.032 16.5487L88.0881 10.0293C88.0396 10.0654 87.9963 10.1046 87.952 10.1499Z" fill="#F0F5EF"/>
<path fill-rule="evenodd" clip-rule="evenodd" d="M86.4295 11.7139L88.1114 17.3815C88.1227 17.4072 88.1423 17.4279 88.1599 17.4351C88.1784 17.4423 88.1991 17.4433 88.2156 17.4351C88.2547 17.4227 88.2846 17.3794 88.2661 17.3371L86.5481 11.5664C86.5068 11.619 86.4687 11.6664 86.4295 11.7139Z" fill="#F0F5EF"/>
<path fill-rule="evenodd" clip-rule="evenodd" d="M141.025 68.902C141.025 68.902 140.891 69.0526 140.656 69.3269C138.382 71.9936 126.741 86.4637 137.23 91.5868C137.23 91.5868 143.257 85.4717 147.496 82.4853C151.735 79.4988 176.221 57.6597 176.221 57.6597L171.511 48.0879C171.511 48.0879 150.755 66.1806 149.264 67.0819L141.025 68.902Z" fill="#83952F"/>
<path fill-rule="evenodd" clip-rule="evenodd" d="M32.0332 201.687C30.696 192.841 32.2242 187.717 32.2242 187.717C32.2242 187.717 26.1124 153.88 26.3271 146.58C26.4832 141.275 28.0566 136.03 29.7162 131.899L29.7183 131.895C31.3163 127.918 32.9935 124.976 33.5665 124.012C33.5686 124.009 33.5706 124.007 33.5717 124.004C33.7011 123.787 33.776 123.667 33.776 123.667L33.4043 118.887C35.0126 118.637 37.5216 119.554 37.5216 119.554C39.4514 118.221 42.2818 119.554 42.2818 119.554C45.1113 118.305 47.4909 119.554 47.4909 119.554C50.3861 118.054 52.702 119.554 52.702 119.554C55.21 118.804 57.5896 119.138 57.5896 119.138L56.995 123.365C56.995 123.365 70.5198 149.625 74.101 158.739C77.6822 167.853 82.2905 178.936 80.5487 187.476C78.8068 196.016 60.9213 227.065 60.9213 227.065L49.1752 219.625C49.319 213.199 52.7082 209.953 52.7082 209.953C53.1385 202.219 57.9131 197.771 57.9131 197.771C58.3917 188.877 62.6405 184.865 62.6405 184.865L51.1327 162.387L48.6504 189.843L45.976 227.065H32.2242C31.0781 221.651 32.3434 214.087 32.3434 214.087C30.3386 206.545 32.0332 201.687 32.0332 201.687Z" fill="#7FB4C8"/>
<path fill-rule="evenodd" clip-rule="evenodd" d="M59.217 49.5675C59.1435 49.1148 58.8308 48.7415 58.4724 48.4674C56.9215 47.281 54.9557 47.1171 53.5488 45.6328C53.1 45.1602 52.7197 44.6231 52.2451 44.1783C51.6355 43.6054 50.8859 43.2003 50.0996 42.9203C44.8672 41.0577 34.8145 45.5256 35.4212 51.9375C35.5393 53.1835 36.0278 54.3769 36.1042 55.6259C36.2035 57.2552 35.6009 58.9034 35.9345 60.5009C36.1092 61.3339 36.5292 62.0934 36.9442 62.839C37.7762 64.3353 39.5812 67.2553 41.2502 67.9652C41.3763 68.0198 41.5203 68.0635 41.6474 68.0108C41.7804 67.9552 41.8499 67.8113 41.9035 67.6772C42.7177 65.6052 41.5213 63.2779 40.9762 61.177C40.5274 59.4445 40.3686 58.0326 41.15 56.4331C41.844 55.0114 41.9313 53.9788 42.0723 52.3257C42.3195 49.4265 48.0384 48.9936 49.4294 50.1166C51.3784 51.6912 52.3494 50.75 53.523 50.8513C54.1673 50.9059 54.7442 51.4559 55.1403 51.9444C54.9259 52.0516 55.6616 52.5232 55.6616 52.5232L55.47 58.4913C58.0305 56.6545 56.573 52.2621 56.571 52.2532C57.7774 51.6327 59.3987 50.6785 59.217 49.5675Z" fill="#2B2D4D"/>
<path fill-rule="evenodd" clip-rule="evenodd" d="M50.0402 69.0642L49.8396 76.6784C49.7741 79.3522 48.0922 80.7422 45.4611 80.6578C43.2143 80.5853 41.1422 79.3572 40.9357 77.1193L41.8273 65.1523L50.0402 69.0642Z" fill="#EBBC8F"/>
<path fill-rule="evenodd" clip-rule="evenodd" d="M49.9161 72.7767C44.5874 72.7817 41.2047 66.4473 41.2047 66.4473L50.0759 68.2841L49.9161 72.7767Z" fill="#00023C" fill-opacity="0.18"/>
<path fill-rule="evenodd" clip-rule="evenodd" d="M47.7119 69.29C52.1579 69.3038 55.8295 65.802 55.9626 62.1711L56.2247 53.6037C56.3905 49.0525 53.4893 45.1913 48.947 44.8745C44.2965 44.5509 38.8784 48.003 38.5538 52.6526L38.4187 59.546C38.3135 64.8777 42.3922 68.9196 47.7119 69.29Z" fill="#EBBC8F"/>
<path fill-rule="evenodd" clip-rule="evenodd" d="M34.2682 58.7146C34.1351 60.6209 35.5728 62.274 37.4801 62.406C39.3864 62.5391 41.0395 61.1004 41.1715 59.1941C41.3046 57.2878 39.8669 55.6347 37.9596 55.5027C36.0533 55.3696 34.4002 56.8073 34.2682 58.7146Z" fill="#EBBC8F"/>
<path fill-rule="evenodd" clip-rule="evenodd" d="M38.8547 60.0648C38.8547 60.0648 39.0285 57.5618 36.6089 57.7901L38.8547 60.0648Z" fill="#00023C" fill-opacity="0.18"/>
<path fill-rule="evenodd" clip-rule="evenodd" d="M57.1229 53.894C55.5651 54.875 53.5337 54.1095 51.8895 53.2824C49.8552 52.2598 47.8575 51.1617 45.9026 49.9941C46.2054 50.7497 46.5609 51.8269 46.0535 52.5745C45.5432 53.3271 44.3071 53.4314 43.4919 53.4602C42.8337 53.482 42.0374 53.7084 41.8915 54.3508C41.821 54.6635 41.9361 54.9931 41.8915 55.3128C41.8478 55.6226 41.6422 55.9056 41.3613 56.0446C41.1468 56.1498 40.8907 56.1776 40.707 56.3305C40.2006 56.7515 40.6216 57.8982 40.6524 58.4453C40.6831 59.0122 40.6295 59.6536 40.1986 60.025C40.0974 59.6238 39.6555 59.4282 39.3746 59.1274C39.1432 58.8792 39.0171 58.5515 38.9069 58.2318C38.611 57.371 38.4284 56.4983 38.2367 55.6107C38.0739 54.8621 37.645 54.3448 37.2856 53.6855C35.4637 50.3476 36.9957 46.7604 39.874 44.6654C41.8915 43.196 44.4203 42.6102 46.9024 42.3471C48.488 42.1803 50.1749 42.1505 51.5798 42.9071C52.5101 43.4075 53.2349 44.2127 53.9388 45.002C54.9257 46.1071 55.9126 47.2131 56.8985 48.3182C57.5806 49.0807 58.2776 49.87 58.6261 50.8331C58.9736 51.7961 58.8951 52.9856 58.1614 53.7004C57.941 53.9149 57.251 54.174 57.1229 53.894Z" fill="#2B2D4D"/>
<path fill-rule="evenodd" clip-rule="evenodd" d="M50.5472 60.8534C50.5095 60.5913 50.4052 60.3213 50.2761 60.0601C50.2106 59.9291 50.1312 59.801 49.9475 59.8278C49.7589 59.8546 49.6824 59.9877 49.6626 60.1535C49.6477 60.2726 49.6457 60.4017 49.6725 60.5178C49.8025 61.0907 49.8214 61.6894 50.0518 62.2404C50.1183 62.4013 50.2156 62.5135 50.4022 62.4847C50.6127 62.4499 50.712 62.2931 50.717 62.1034C50.7309 61.6894 50.6753 61.2804 50.5472 60.8534Z" fill="#00023C" fill-opacity="0.18"/>
<path fill-rule="evenodd" clip-rule="evenodd" d="M49.9262 65.2626C49.9371 65.2586 49.947 65.2546 49.9589 65.2517C50.1138 65.203 50.3491 65.2487 50.369 65.0213C50.3908 64.781 50.1426 64.8108 49.9986 64.7433C49.114 64.8198 48.4111 64.4584 47.8193 63.8339C47.6346 63.7723 47.4678 63.4397 47.2653 63.7098C47.0578 63.9838 47.4202 64.0662 47.5373 64.229C47.6108 64.3323 47.7607 64.3551 47.8084 64.4862C48.4508 64.9161 49.1428 65.2139 49.9262 65.2626Z" fill="#2B2D4D"/>
<path fill-rule="evenodd" clip-rule="evenodd" d="M52.7263 58.1823C52.7928 58.1307 52.8593 58.086 52.9209 58.0502C53.2475 57.8616 53.6457 57.8278 54.018 57.8894C54.4499 57.9609 54.8957 58.1674 55.2352 58.4414C55.3931 58.5685 55.541 58.7989 55.6066 58.9885C55.689 59.2278 55.5361 59.4353 55.2591 59.3132C54.8361 59.1265 54.6246 58.6152 54.1401 58.4921C53.6675 58.3739 53.2138 58.5953 52.8365 58.8634C52.7461 58.9279 52.6469 58.9815 52.5615 59.052C52.2805 59.2854 52.1226 58.9617 52.2239 58.6986C52.3073 58.4801 52.5575 58.3124 52.7263 58.1823Z" fill="#2B2D4D"/>
<path fill-rule="evenodd" clip-rule="evenodd" d="M44.5091 56.9674C44.5955 56.9009 44.6808 56.8423 44.7613 56.7956C45.1832 56.5504 45.6995 56.5077 46.1811 56.5871C46.74 56.6805 47.3159 56.9465 47.7567 57.302C47.9603 57.4658 48.1529 57.7647 48.2373 58.0109C48.3435 58.3187 48.1459 58.5877 47.7865 58.4309C47.2394 58.1896 46.9664 57.5254 46.3389 57.3685C45.7283 57.2156 45.1405 57.5006 44.652 57.8481C44.5349 57.9315 44.4068 58.001 44.2966 58.0933C43.9312 58.3951 43.7277 57.9761 43.8588 57.6346C43.967 57.3526 44.2897 57.1352 44.5091 56.9674Z" fill="#2B2D4D"/>
<path fill-rule="evenodd" clip-rule="evenodd" d="M43.8435 81.1978L51.5113 78.7663L51.7913 74.8753C50.8676 75.8521 48.8881 76.0589 45.8527 75.4957C42.8173 74.9324 39.9543 73.8271 37.2638 72.1797L43.8435 81.1978Z" fill="#B2790F"/>
<path fill-rule="evenodd" clip-rule="evenodd" d="M70.8882 104.815C70.9274 104.83 71.3584 104.893 72.1812 105.003C73.4143 105.169 74.7477 105.211 76.1337 105.161C77.5198 105.113 78.9564 104.974 80.4209 104.785C81.8863 104.594 83.3796 104.353 84.8937 104.089L84.9017 104.087C87.1356 103.698 89.2613 105.194 89.6505 107.428C90.0208 109.556 88.6646 111.592 86.6034 112.113C85.0526 112.502 83.4729 112.879 81.8486 113.213C80.2233 113.546 78.5533 113.837 76.8148 114.028C75.0763 114.218 73.2654 114.311 71.3759 114.205C69.4905 114.097 67.5157 113.781 65.5558 113.132C64.3018 112.717 63.3546 111.8 62.8622 110.678L62.748 110.414L51.911 85.4358C50.6927 82.628 51.9814 79.3645 54.7892 78.1462C57.5971 76.929 60.8606 78.2177 62.0788 81.0245C62.1165 81.1129 62.1592 81.2191 62.192 81.3075L70.8882 104.815Z" fill="#EBBC8F"/>
<path fill-rule="evenodd" clip-rule="evenodd" d="M63.8956 97.4951C64.824 95.1967 63.574 92.9697 62.6268 88.2069C62.4709 87.4276 62.3289 86.6343 62.2118 85.831C62.1492 85.4041 62.1552 85.6722 62.1591 85.8092C62.1542 85.7536 62.1442 85.699 62.1403 85.6424C62.1383 85.6186 62.1353 85.5927 62.1333 85.5689C62.1284 85.4935 62.1234 85.421 62.1184 85.3475C62.0996 85.0804 62.0827 84.8203 62.0668 84.5691C61.9556 82.8098 61.904 81.4287 61.6071 80.2968C61.5227 79.9742 61.4175 79.6703 61.2864 79.3844C60.8913 78.5266 60.2528 77.8246 59.1796 77.1961C58.5243 76.8109 57.7082 76.4565 56.6865 76.107C56.2616 75.963 51.9019 74.5333 51.7917 74.8758C51.1781 76.7573 49.8219 78.4452 47.9891 79.1918C46.1572 79.9394 43.8608 79.6108 42.4886 78.185C41.9098 77.5814 41.5156 76.8298 41.1304 76.0881C40.774 75.404 40.4175 74.7209 40.0611 74.0359C39.7573 73.4511 39.4296 72.8405 38.8826 72.4731C37.576 71.5974 33.6919 72.9338 32.2572 73.2148C31.8204 73.3002 31.3696 73.3925 30.9129 73.4888C29.7344 73.739 28.7653 74.1769 27.98 74.7626C24.5755 77.3034 24.6331 82.637 26.1402 87.6361C26.5662 89.0469 26.9603 90.5044 27.3148 91.9639C27.3644 92.1605 27.4121 92.3561 27.4577 92.5527C27.5292 92.8545 27.5987 93.1554 27.6682 93.4582C28.7246 98.1097 29.3879 102.646 29.4971 105.693C29.5715 107.739 30.3738 119.929 30.1256 122.497C30.0719 123.054 30.0104 123.623 29.9389 124.207L29.9399 124.206C29.9399 124.207 29.9389 124.207 29.9379 124.207C29.9379 124.207 29.8227 126.182 32.4836 126.501L61.7789 125.025C61.7789 125.025 63.5372 123.938 63.006 121.687C63.006 121.687 63.0001 121.684 62.9991 121.684C63.0021 121.685 63.0051 121.686 63.006 121.686C62.9713 121.223 62.9405 120.779 62.9107 120.354C62.873 119.779 61.628 105.398 61.6041 104.91C61.5733 104.304 61.5565 103.77 61.5515 103.323C61.5505 103.206 61.5495 103.094 61.5505 102.989C61.5515 102.975 61.5515 102.961 61.5515 102.947C61.5515 102.947 62.9028 99.9564 63.8956 97.4951Z" fill="#EA9800"/>
<path fill-rule="evenodd" clip-rule="evenodd" d="M29.1984 122.474C29.1984 122.474 29.7534 123.77 28.6295 123.92C27.7588 124.037 27.2951 123.583 27.2951 123.583C27.2951 123.583 27.4053 125.122 25.6589 124.841C24.5747 124.666 20.081 121.281 18.3892 119.07C16.6973 116.862 19.1676 111.935 23.3624 112.047C23.3624 112.047 29.8934 112.92 32.7151 115.556C35.5368 118.191 33.6683 119.677 33.3505 119.907C33.2949 119.948 33.2463 119.98 33.1996 120.007C33.3237 120.426 33.2701 120.961 32.5314 121.378C32.0638 121.64 31.7441 121.653 31.5267 121.566C31.3062 121.236 31.0868 121 31.0868 121C31.0868 121 31.1643 121.421 31.5267 121.566C31.892 122.116 31.6756 122.603 31.063 123.053C30.2886 123.62 29.1984 122.474 29.1984 122.474Z" fill="#EBBC8F"/>
<path fill-rule="evenodd" clip-rule="evenodd" d="M98.5763 107.314C97.2727 108.567 92.2697 109.939 90.9214 110.647C89.576 111.35 84.6386 112.027 84.6386 112.027L82.5297 107.762C82.5297 107.762 82.3639 106.684 84.8024 104.149C87.2349 101.608 91.392 97.3643 92.2826 97.7962C93.1424 98.2162 91.1209 101.865 90.6652 102.625L90.6205 102.697C90.5927 102.741 90.6185 102.749 90.695 102.737C91.5479 102.551 98.7481 98.6729 99.3746 99.4761C99.5612 99.7224 99.6863 100.357 99.735 101.162C99.7379 101.217 99.7409 101.272 99.7409 101.333C99.7687 101.927 99.7608 102.606 99.7111 103.288C99.7111 103.349 99.7052 103.406 99.6962 103.468C99.6406 104.149 99.5453 104.832 99.4073 105.436C99.3895 105.501 99.3755 105.56 99.3607 105.62C99.174 106.375 98.9139 106.994 98.5763 107.314Z" fill="#EBBC8F"/>
<path fill-rule="evenodd" clip-rule="evenodd" d="M88.5512 107.149L88.5473 107.146C88.5105 107.121 88.5026 107.071 88.5284 107.034C89.6821 105.428 90.537 102.704 90.5449 102.677C90.5578 102.635 90.6035 102.612 90.6452 102.625C90.6869 102.637 90.7117 102.683 90.6988 102.726C90.6899 102.753 89.828 105.5 88.6595 107.128C88.6346 107.163 88.587 107.171 88.5512 107.149Z" fill="#B3B2E6"/>
<path fill-rule="evenodd" clip-rule="evenodd" d="M99.7409 101.333L92.5635 104.208C92.5377 104.214 92.5138 104.214 92.492 104.201C92.4761 104.19 92.4682 104.178 92.4592 104.158C92.4453 104.119 92.4642 104.077 92.5059 104.058L99.7349 101.162C99.7379 101.218 99.7409 101.272 99.7409 101.333Z" fill="#B3B2E6"/>
<path fill-rule="evenodd" clip-rule="evenodd" d="M99.6962 103.468L93.4104 105.795C93.3886 105.805 93.3608 105.802 93.3389 105.788C93.328 105.781 93.3151 105.765 93.3072 105.753C93.2923 105.706 93.3102 105.664 93.3528 105.644L99.7111 103.287C99.7111 103.349 99.7052 103.406 99.6962 103.468Z" fill="#B3B2E6"/>
<path fill-rule="evenodd" clip-rule="evenodd" d="M99.3608 105.621L93.8385 107.675C93.8117 107.682 93.7829 107.679 93.767 107.669C93.7511 107.659 93.7372 107.643 93.7342 107.626C93.7203 107.586 93.7362 107.536 93.7809 107.525L99.4074 105.438C99.3896 105.502 99.3757 105.562 99.3608 105.621Z" fill="#B3B2E6"/>
<mask id="mask3" mask-type="alpha" maskUnits="userSpaceOnUse" x="86" y="93" width="22" height="19">
<path fill-rule="evenodd" clip-rule="evenodd" d="M86.8729 93.8203H107.607V111.852H86.8729V93.8203Z" fill="white"/>
</mask>
<g mask="url(#mask3)">
<path fill-rule="evenodd" clip-rule="evenodd" d="M102.521 94.0503L107.43 99.242C107.703 99.5319 107.655 99.9816 107.323 100.247L93.0552 111.664C92.7226 111.931 92.2321 111.912 91.9591 111.623L87.0494 106.43C86.7774 106.141 86.825 105.692 87.1566 105.425L101.425 94.0086C101.757 93.7415 102.248 93.7614 102.521 94.0503Z" fill="#5C616E"/>
</g>
<path fill-rule="evenodd" clip-rule="evenodd" d="M101.575 93.0499L106.484 98.2426C106.757 98.5315 106.709 98.9812 106.376 99.2473L92.109 110.664C91.7763 110.93 91.2859 110.911 91.0128 110.623L86.1032 105.431C85.8301 105.142 85.8788 104.692 86.2104 104.426L100.479 93.0082C100.81 92.7421 101.302 92.761 101.575 93.0499Z" fill="#A1A6B2"/>
<circle cx="89.5002" cy="107" r="1" fill="#EFF2F9"/>
<path fill-rule="evenodd" clip-rule="evenodd" d="M100.25 94.2656L104.563 98.8288L92.9354 108.134L88.6224 103.571L100.25 94.2656Z" fill="#EBEBEB"/>
<path fill-rule="evenodd" clip-rule="evenodd" d="M104.563 98.8288L88.6217 103.571L100.25 94.2656L104.563 98.8288Z" fill="#EFF2F9"/>
<path fill-rule="evenodd" clip-rule="evenodd" d="M27.5695 89.7622C23.9496 92.1481 20.2363 94.3929 16.4416 96.4899C15.5579 96.9793 14.6266 97.4996 14.1193 98.3723C12.6975 100.815 17.2259 105.068 18.5921 106.735C19.1809 107.452 19.7815 108.165 20.3911 108.871C20.696 109.224 21.0027 109.574 21.3105 109.921L21.7722 110.438L22.215 110.925L22.2845 111.002C24.1789 113.087 24.024 116.313 21.938 118.208C20.8419 119.203 21.0236 121.113 19.6266 120.44C16.3433 117.085 13.1423 113.639 10.0456 110.111C6.65495 106.249 -1.19956 99.1567 2.44225 93.6175C3.60786 91.8443 5.39402 90.5883 7.13549 89.376C13.3726 85.0392 19.6088 80.7014 25.8459 76.3646C27.1426 75.4621 28.6398 74.5159 30.1867 74.8346C31.1577 75.0342 31.9659 75.7173 32.5735 76.5006C34.3041 78.7375 34.592 81.9981 33.2785 84.5031C32.1744 86.6069 30.15 88.0466 28.1722 89.3631C27.9716 89.4962 27.7711 89.6292 27.5695 89.7622Z" fill="#EBBC8F"/>
</g>
</svg>
